<svg width="30" height="30" viewBox="0 0 30 30" fill="none" xmlns="http://www.w3.org/2000/svg">
<path fill-rule="evenodd" clip-rule="evenodd" d="M26.3936 23.7081V20.8322C26.3936 20.1201 26.6765 19.4371 27.18 18.9335L29.2136 16.8998C30.2621 15.8511 30.2621 14.151 29.2136 13.1024L27.18 11.0686C26.6765 10.5651 26.3936 9.88209 26.3936 9.16993V6.29187C26.3936 4.80887 25.1915 3.60667 23.7086 3.60667H20.8307C20.1186 3.60667 19.4357 3.32376 18.9321 2.82018L16.8986 0.786465C15.85 -0.262155 14.15 -0.262155 13.1014 0.786465L11.0679 2.82018C10.5643 3.32376 9.88138 3.60667 9.16928 3.60667H6.29142C5.57894 3.60667 4.89567 3.88987 4.39207 4.3939C3.88848 4.89794 3.60584 5.58148 3.60641 6.29401V9.16993C3.60641 9.88209 3.32352 10.5651 2.81998 11.0686L0.786409 13.1024C-0.262136 14.151 -0.262136 15.8511 0.786409 16.8998L2.81998 18.9335C3.32352 19.4371 3.60641 20.1201 3.60641 20.8322V23.7081C3.60641 25.1911 4.80853 26.3933 6.29142 26.3933H9.16928C9.88138 26.3933 10.5643 26.6762 11.0679 27.1798L13.1014 29.2135C14.15 30.2622 15.85 30.2622 16.8986 29.2135L18.9321 27.1798C19.4357 26.6762 20.1186 26.3933 20.8307 26.3933H23.7064C24.4189 26.3939 25.1024 26.1112 25.6064 25.6076C26.1104 25.104 26.3936 24.4207 26.3936 23.7081Z" fill="#A71E5C"/>
<path fill-rule="evenodd" clip-rule="evenodd" d="M10.3405 12.6708C9.86934 12.1996 9.72837 11.491 9.98335 10.8754C10.2383 10.2598 10.8391 9.8584 11.5054 9.8584C12.1717 9.8584 12.7724 10.2598 13.0274 10.8754C13.2824 11.491 13.1414 12.1996 12.6702 12.6708C12.0269 13.3141 10.9839 13.3141 10.3405 12.6708Z" stroke="white" stroke-width="2" stroke-linecap="round" stroke-linejoin="round"/>
<path fill-rule="evenodd" clip-rule="evenodd" d="M17.3298 19.6591C16.8586 19.1879 16.7176 18.4793 16.9726 17.8637C17.2276 17.2481 17.8283 16.8467 18.4946 16.8467C19.161 16.8467 19.7617 17.2481 20.0167 17.8637C20.2717 18.4793 20.1307 19.1879 19.6595 19.6591C19.0162 20.3024 17.9731 20.3024 17.3298 19.6591Z" stroke="white" stroke-width="2" stroke-linecap="round"/>
<path d="M19.6595 10.3379L10.3389 19.6602" stroke="white" stroke-width="2" stroke-linecap="round"/>
</svg>
