<svg width="23" height="24" viewBox="0 0 23 24" fill="none" xmlns="http://www.w3.org/2000/svg">
<path d="M12.7438 8.05751C12.3439 7.67663 12.3285 7.04365 12.7094 6.64372C13.0902 6.24379 13.7232 6.22835 14.1232 6.60924L12.7438 8.05751ZM19.0232 11.2759C19.4231 11.6568 19.4385 12.2898 19.0576 12.6897C18.6767 13.0896 18.0438 13.1051 17.6438 12.7242L19.0232 11.2759ZM17.6438 11.2759C18.0438 10.895 18.6767 10.9105 19.0576 11.3104C19.4385 11.7103 19.4231 12.3433 19.0232 12.7242L17.6438 11.2759ZM14.1232 17.3908C13.7232 17.7717 13.0902 17.7563 12.7094 17.3564C12.3285 16.9564 12.3439 16.3235 12.7438 15.9426L14.1232 17.3908ZM18.3335 11C18.8858 11 19.3335 11.4478 19.3335 12C19.3335 12.5523 18.8858 13 18.3335 13V11ZM5.26683 13C4.71454 13 4.26683 12.5523 4.26683 12C4.26683 11.4478 4.71454 11 5.26683 11V13ZM14.1232 6.60924L19.0232 11.2759L17.6438 12.7242L12.7438 8.05751L14.1232 6.60924ZM19.0232 12.7242L14.1232 17.3908L12.7438 15.9426L17.6438 11.2759L19.0232 12.7242ZM18.3335 13H5.26683V11H18.3335V13Z" fill="#1D1117"/>
</svg>
