<svg width="32" height="32" viewBox="0 0 32 32" fill="none" xmlns="http://www.w3.org/2000/svg">
<path fill-rule="evenodd" clip-rule="evenodd" d="M7.6541 10.8903C8.65943 9.83027 9.01543 9.53294 9.44343 9.39561C9.74008 9.31758 10.0513 9.313 10.3501 9.38227C10.7434 9.49694 10.8461 9.58361 12.1368 10.8676C13.2701 11.9956 13.3821 12.1183 13.4914 12.3343C13.7029 12.723 13.7369 13.184 13.5848 13.5996C13.4728 13.9129 13.3074 14.1209 12.6208 14.8116L12.1728 15.2609C12.0549 15.3805 12.027 15.5621 12.1034 15.7116C13.0979 17.4084 14.5086 18.8236 16.2021 19.8236C16.3974 19.9283 16.6381 19.8943 16.7968 19.7396L17.2274 19.3156C17.4935 19.0425 17.7754 18.7852 18.0714 18.5449C18.5357 18.2577 19.1152 18.23 19.6048 18.4716C19.8434 18.5836 19.9234 18.6569 21.0928 19.8223C22.2928 21.0223 22.3314 21.0609 22.4661 21.3369C22.7175 21.7941 22.715 22.3487 22.4594 22.8036C22.3261 23.0596 22.2514 23.1529 21.5741 23.8449C21.1648 24.2636 20.7741 24.6449 20.7181 24.7009C20.1587 25.1633 19.4416 25.3903 18.7181 25.3343C17.3944 25.2131 16.1133 24.8035 14.9648 24.1343C12.4192 22.7856 10.2523 20.8204 8.6621 18.4183C8.31436 17.9161 8.00503 17.3884 7.73676 16.8396C7.02197 15.6142 6.65244 14.2181 6.66743 12.7996C6.7212 12.055 7.0778 11.3649 7.6541 10.8903Z" stroke="#9A7D8C" stroke-width="2" stroke-linecap="round" stroke-linejoin="round"/>
<path d="M19.1228 5.72529C18.603 5.53872 18.0304 5.80887 17.8438 6.32869C17.6572 6.8485 17.9274 7.42114 18.4472 7.60772L19.1228 5.72529ZM24.383 13.4442C24.5783 13.9607 25.1554 14.2212 25.672 14.0259C26.1886 13.8306 26.4491 13.2534 26.2537 12.7369L24.383 13.4442ZM17.5387 8.69507C16.9999 8.57341 16.4646 8.91149 16.3429 9.45021C16.2213 9.98893 16.5593 10.5243 17.0981 10.6459L17.5387 8.69507ZM21.4267 14.903C21.5574 15.4396 22.0983 15.7688 22.6349 15.6381C23.1715 15.5075 23.5006 14.9666 23.37 14.43L21.4267 14.903ZM18.4472 7.60772C21.1849 8.59031 23.3543 10.7235 24.383 13.4442L26.2537 12.7369C25.018 9.46836 22.4117 6.90573 19.1228 5.72529L18.4472 7.60772ZM17.0981 10.6459C19.2322 11.1279 20.9092 12.7772 21.4267 14.903L23.37 14.43C22.6728 11.5662 20.4137 9.34438 17.5387 8.69507L17.0981 10.6459Z" fill="#9A7D8C"/>
</svg>
