<svg width="25" height="24" viewBox="0 0 25 24" fill="none" xmlns="http://www.w3.org/2000/svg">
<path fill-rule="evenodd" clip-rule="evenodd" d="M9.44219 17.9499C9.44109 18.5284 8.97139 18.9966 8.39286 18.9959C7.81433 18.9952 7.34582 18.5258 7.34619 17.9472C7.34656 17.3687 7.81566 16.8999 8.39419 16.8999C8.6724 16.9002 8.93911 17.0109 9.13565 17.2079C9.33219 17.4048 9.44246 17.6717 9.44219 17.9499V17.9499Z" stroke="white" stroke-width="2" stroke-linecap="round" stroke-linejoin="round"/>
<path fill-rule="evenodd" clip-rule="evenodd" d="M15.0311 17.9499C15.03 18.5284 14.5603 18.9966 13.9817 18.9959C13.4032 18.9952 12.9347 18.5258 12.9351 17.9472C12.9354 17.3687 13.4045 16.8999 13.9831 16.8999C14.2613 16.9002 14.528 17.0109 14.7245 17.2079C14.9211 17.4048 15.0313 17.6717 15.0311 17.9499V17.9499Z" stroke="white" stroke-width="2" stroke-linecap="round" stroke-linejoin="round"/>
<path fill-rule="evenodd" clip-rule="evenodd" d="M18.85 7.80005H8.74297L8.04297 13.4C8.04297 14.1732 8.66977 14.8 9.44297 14.8L17.25 14C17.7416 13.9998 18.1971 13.7417 18.45 13.32L20.05 9.92005C20.3093 9.48764 20.316 8.9492 20.0677 8.51041C19.8193 8.07163 19.3542 7.80029 18.85 7.80005Z" stroke="white" stroke-width="2" stroke-linecap="round" stroke-linejoin="round"/>
<path d="M8.743 7.8L8.074 5.118C8.05611 5.04823 7.99303 4.99958 7.921 5H5.25" stroke="white" stroke-width="2" stroke-linecap="round" stroke-linejoin="round"/>
</svg>
