<svg width="48" height="48" viewBox="0 0 48 48" fill="none" xmlns="http://www.w3.org/2000/svg">
<path fill-rule="evenodd" clip-rule="evenodd" d="M17.3841 35.9C17.3819 37.0571 16.4425 37.9935 15.2855 37.992C14.1284 37.9906 13.1914 37.0518 13.1921 35.8947C13.1929 34.7377 14.1311 33.8001 15.2881 33.8C15.8446 33.8006 16.378 34.0221 16.7711 34.416C17.1641 34.8098 17.3847 35.3436 17.3841 35.9V35.9Z" stroke="#1D1117" stroke-width="2" stroke-linecap="round" stroke-linejoin="round"/>
<path fill-rule="evenodd" clip-rule="evenodd" d="M28.5621 35.9C28.5599 37.0571 27.6205 37.9935 26.4635 37.992C25.3064 37.9906 24.3694 37.0518 24.3701 35.8947C24.3709 34.7377 25.309 33.8001 26.4661 33.8C27.0225 33.8006 27.556 34.0221 27.949 34.416C28.3421 34.8098 28.5626 35.3436 28.5621 35.9V35.9Z" stroke="#1D1117" stroke-width="2" stroke-linecap="round" stroke-linejoin="round"/>
<path fill-rule="evenodd" clip-rule="evenodd" d="M36.2002 15.6H15.9862L14.5862 26.8C14.5862 28.3464 15.8398 29.6 17.3862 29.6L33.0002 28C33.9835 27.9995 34.8945 27.4833 35.4002 26.64L38.6002 19.84C39.1188 18.9752 39.1323 17.8983 38.6356 17.0207C38.1388 16.1431 37.2086 15.6005 36.2002 15.6Z" stroke="#1D1117" stroke-width="2" stroke-linecap="round" stroke-linejoin="round"/>
<path d="M15.986 15.6L14.648 10.236C14.6122 10.0965 14.4861 9.99916 14.342 10H9" stroke="#1D1117" stroke-width="2" stroke-linecap="round" stroke-linejoin="round"/>
</svg>
