<svg width="92" height="86" viewBox="0 0 92 86" fill="none" xmlns="http://www.w3.org/2000/svg">
<path d="M19.6 43.0667L22.1667 18.5H75.7L84.5 18.8667L89.2667 23.2667V28.7667L82.3 43.4333L77.9 52.6L73.8667 54.0667L30.6 59.5667H24.3667L19.6 56.6333L18.5 51.1333L19.6 43.0667Z" fill="url(#paint0_linear_541_30282)"/>
<path d="M47.0607 29.9393C46.4749 29.3536 45.5251 29.3536 44.9393 29.9393C44.3536 30.5251 44.3536 31.4749 44.9393 32.0607L47.0607 29.9393ZM51.0108 38.1321C51.5966 38.7179 52.5463 38.7179 53.1321 38.1321C53.7179 37.5463 53.7179 36.5966 53.1321 36.0108L51.0108 38.1321ZM53.132 36.0107C52.5462 35.4249 51.5965 35.4249 51.0107 36.0107C50.4249 36.5965 50.4249 37.5463 51.0107 38.132L53.132 36.0107ZM57.0821 44.2035C57.6679 44.7893 58.6177 44.7893 59.2034 44.2035C59.7892 43.6177 59.7892 42.6679 59.2034 42.0821L57.0821 44.2035ZM53.1321 38.132C53.7179 37.5463 53.7179 36.5965 53.1321 36.0107C52.5463 35.4249 51.5966 35.4249 51.0108 36.0107L53.1321 38.132ZM44.9393 42.0821C44.3536 42.6679 44.3536 43.6177 44.9393 44.2035C45.5251 44.7893 46.4749 44.7893 47.0607 44.2035L44.9393 42.0821ZM51.0107 36.0108C50.4249 36.5966 50.4249 37.5463 51.0107 38.1321C51.5965 38.7179 52.5462 38.7179 53.132 38.1321L51.0107 36.0108ZM59.2034 32.0607C59.7892 31.4749 59.7892 30.5251 59.2034 29.9393C58.6177 29.3536 57.6679 29.3536 57.0821 29.9393L59.2034 32.0607ZM44.9393 32.0607L51.0108 38.1321L53.1321 36.0108L47.0607 29.9393L44.9393 32.0607ZM51.0107 38.132L57.0821 44.2035L59.2034 42.0821L53.132 36.0107L51.0107 38.132ZM51.0108 36.0107L44.9393 42.0821L47.0607 44.2035L53.1321 38.132L51.0108 36.0107ZM53.132 38.1321L59.2034 32.0607L57.0821 29.9393L51.0107 36.0108L53.132 38.1321Z" fill="#811B49"/>
<path d="M22.4933 18.4273H81.7902C84.7483 18.4287 87.4772 20.0206 88.9343 22.5949C90.3915 25.1692 90.3518 28.3282 88.8305 30.8651L79.4435 50.8126C77.96 53.2864 75.2876 54.8008 72.4032 54.8022L26.6002 59.4957C22.0639 59.4957 18.3865 55.8183 18.3865 51.282L22.4933 18.4273ZM22.4933 18.4273L18.5682 2.69231C18.4632 2.28295 18.0931 1.99754 17.6705 2.00002H2M26.5941 77.9765C26.5877 81.3707 23.832 84.1176 20.4378 84.1133C17.0436 84.109 14.295 81.3551 14.2971 77.9609C14.2993 74.5667 17.0514 71.8163 20.4456 71.8162C22.0779 71.8178 23.6426 72.4677 24.7957 73.623C25.9488 74.7782 26.5957 76.3443 26.5941 77.9765ZM59.3843 77.9765C59.3778 81.3707 56.6221 84.1176 53.2279 84.1133C49.8337 84.109 47.0851 81.3551 47.0872 77.9609C47.0894 74.5667 49.8415 71.8163 53.2357 71.8162C54.868 71.8178 56.4328 72.4677 57.5858 73.623C58.7389 74.7782 59.3858 76.3443 59.3843 77.9765Z" stroke="url(#paint1_linear_541_30282)" stroke-width="3" stroke-linecap="round" stroke-linejoin="round"/>
<defs>
<linearGradient id="paint0_linear_541_30282" x1="21.5768" y1="21.1783" x2="55.2422" y2="72.2967" gradientUnits="userSpaceOnUse">
<stop stop-color="#FFEDF5"/>
<stop offset="1" stop-color="#E0BCCD"/>
</linearGradient>
<linearGradient id="paint1_linear_541_30282" x1="44.9524" y1="29.0893" x2="103.465" y2="57.2443" gradientUnits="userSpaceOnUse">
<stop stop-color="#A71E5C"/>
<stop offset="1" stop-color="#1D1117"/>
</linearGradient>
</defs>
</svg>
