<svg width="32" height="32" viewBox="0 0 32 32" fill="none" xmlns="http://www.w3.org/2000/svg">
<path fill-rule="evenodd" clip-rule="evenodd" d="M19.1668 9.83341C19.1668 11.5823 17.7491 13.0001 16.0002 13.0001C14.2513 13.0001 12.8335 11.5823 12.8335 9.83341C12.8335 8.08451 14.2513 6.66675 16.0002 6.66675C17.7491 6.66675 19.1668 8.08451 19.1668 9.83341Z" stroke="#9A7D8C" stroke-width="2" stroke-linecap="round" stroke-linejoin="round"/>
<path fill-rule="evenodd" clip-rule="evenodd" d="M22.3337 21.0336C22.3337 23.4336 19.4977 25.3896 16.0003 25.3896C12.503 25.3896 9.66699 23.439 9.66699 21.0336C9.66699 18.6283 12.503 16.679 16.0003 16.679C19.4977 16.679 22.3337 18.6283 22.3337 21.0336Z" stroke="#9A7D8C" stroke-width="2" stroke-linecap="round" stroke-linejoin="round"/>
<path fill-rule="evenodd" clip-rule="evenodd" d="M25.8667 12.7373C25.8802 13.5087 25.426 14.2117 24.7172 14.5163C24.0084 14.8209 23.1857 14.6667 22.6354 14.126C22.0851 13.5853 21.9163 12.7656 22.2083 12.0515C22.5004 11.3374 23.1952 10.8708 23.9667 10.8707C25.0067 10.8618 25.8571 11.6973 25.8667 12.7373V12.7373Z" stroke="#9A7D8C" stroke-width="2" stroke-linecap="round" stroke-linejoin="round"/>
<path fill-rule="evenodd" clip-rule="evenodd" d="M6.1336 12.7373C6.12006 13.5087 6.5743 14.2117 7.2831 14.5163C7.9919 14.8209 8.81454 14.6667 9.36486 14.126C9.91519 13.5853 10.084 12.7656 9.79193 12.0515C9.49991 11.3374 8.80508 10.8708 8.0336 10.8707C6.99359 10.8618 6.14313 11.6973 6.1336 12.7373Z" stroke="#9A7D8C" stroke-width="2" stroke-linecap="round" stroke-linejoin="round"/>
<path d="M24.956 23.1493C24.4059 23.1 23.9201 23.506 23.8708 24.0561C23.8216 24.6062 24.2276 25.0921 24.7776 25.1413L24.956 23.1493ZM28.6668 21.0333L29.6609 21.1422C29.6688 21.0697 29.6688 20.9965 29.6608 20.924L28.6668 21.0333ZM24.7776 16.9266C24.2275 16.9759 23.8215 17.4618 23.8708 18.0119C23.9201 18.562 24.406 18.9679 24.9561 18.9187L24.7776 16.9266ZM7.22268 25.1413C7.77277 25.0921 8.17877 24.6062 8.12951 24.0561C8.08026 23.506 7.59439 23.1 7.04431 23.1493L7.22268 25.1413ZM3.3335 21.0333L2.33948 20.924C2.33151 20.9965 2.3315 21.0697 2.33944 21.1422L3.3335 21.0333ZM7.04427 18.9187C7.59435 18.9679 8.08023 18.562 8.12951 18.0119C8.17879 17.4618 7.7728 16.9759 7.22272 16.9266L7.04427 18.9187ZM24.7776 25.1413C27.2228 25.3603 29.3935 23.5825 29.6609 21.1422L27.6728 20.9244C27.524 22.2821 26.3163 23.2711 24.956 23.1493L24.7776 25.1413ZM29.6608 20.924C29.3926 18.4844 27.2221 16.7076 24.7776 16.9266L24.9561 18.9187C26.316 18.7968 27.5236 19.7853 27.6728 21.1426L29.6608 20.924ZM7.04431 23.1493C5.68399 23.2711 4.47628 22.2821 4.32755 20.9244L2.33944 21.1422C2.60678 23.5825 4.77757 25.3603 7.22268 25.1413L7.04431 23.1493ZM4.32751 21.1426C4.47672 19.7853 5.68428 18.7968 7.04427 18.9187L7.22272 16.9266C4.77821 16.7076 2.60768 18.4844 2.33948 20.924L4.32751 21.1426Z" fill="#9A7D8C"/>
</svg>
