<svg width="24" height="24" viewBox="0 0 24 24" fill="none" xmlns="http://www.w3.org/2000/svg">
<path d="M6 15C6 14.4477 5.55228 14 5 14C4.44772 14 4 14.4477 4 15H6ZM5 16H4H5ZM20 15C20 14.4477 19.5523 14 19 14C18.4477 14 18 14.4477 18 15H20ZM11.2191 15.3753C10.8741 15.8066 10.944 16.4359 11.3753 16.7809C11.8066 17.1259 12.4359 17.056 12.7809 16.6247L11.2191 15.3753ZM16.7809 11.6247C17.1259 11.1934 17.056 10.5641 16.6247 10.2191C16.1934 9.87412 15.5641 9.94404 15.2191 10.3753L16.7809 11.6247ZM11.2191 16.6247C11.5641 17.056 12.1934 17.1259 12.6247 16.7809C13.056 16.4359 13.1259 15.8066 12.7809 15.3753L11.2191 16.6247ZM8.78087 10.3753C8.43586 9.94404 7.80657 9.87412 7.3753 10.2191C6.94404 10.5641 6.87412 11.1934 7.21913 11.6247L8.78087 10.3753ZM11 16C11 16.5523 11.4477 17 12 17C12.5523 17 13 16.5523 13 16H11ZM13 5C13 4.44772 12.5523 4 12 4C11.4477 4 11 4.44772 11 5H13ZM4 15V16H6V15H4ZM4 16C4 18.2091 5.79086 20 8 20V18C6.89543 18 6 17.1046 6 16H4ZM8 20H16V18H8V20ZM16 20C18.2091 20 20 18.2091 20 16H18C18 17.1046 17.1046 18 16 18V20ZM20 16V15H18V16H20ZM12.7809 16.6247L16.7809 11.6247L15.2191 10.3753L11.2191 15.3753L12.7809 16.6247ZM12.7809 15.3753L8.78087 10.3753L7.21913 11.6247L11.2191 16.6247L12.7809 15.3753ZM13 16V5H11V16H13Z" fill="#1D1117"/>
</svg>
