<svg width="32" height="32" viewBox="0 0 32 32" fill="none" xmlns="http://www.w3.org/2000/svg">
<path d="M8.72518 12.7089C9.11668 12.3193 9.11825 11.6862 8.72871 11.2947C8.33916 10.9032 7.70599 10.9016 7.3145 11.2911L8.72518 12.7089ZM3.2945 15.2911C2.903 15.6807 2.90142 16.3138 3.29097 16.7053C3.68052 17.0968 4.31368 17.0984 4.70518 16.7089L3.2945 15.2911ZM4.70518 15.2911C4.31368 14.9016 3.68052 14.9032 3.29097 15.2947C2.90142 15.6862 2.903 16.3193 3.2945 16.7089L4.70518 15.2911ZM7.3145 20.7089C7.70599 21.0984 8.33916 21.0968 8.72871 20.7053C9.11825 20.3138 9.11668 19.6807 8.72518 19.2911L7.3145 20.7089ZM3.99984 15C3.44755 15 2.99984 15.4477 2.99984 16C2.99984 16.5523 3.44755 17 3.99984 17V15ZM22.6665 17C23.2188 17 23.6665 16.5523 23.6665 16C23.6665 15.4477 23.2188 15 22.6665 15V17ZM7.3145 11.2911L3.2945 15.2911L4.70518 16.7089L8.72518 12.7089L7.3145 11.2911ZM3.2945 16.7089L7.3145 20.7089L8.72518 19.2911L4.70518 15.2911L3.2945 16.7089ZM3.99984 17L22.6665 17V15L3.99984 15V17Z" fill="#9A7D8C"/>
<path d="M12 20.0001C12 22.9456 14.3878 25.3334 17.3333 25.3334H22.6667C25.6122 25.3334 28 22.9456 28 20.0001V12.0001C28 9.05456 25.6122 6.66675 22.6667 6.66675H17.3333C14.3878 6.66675 12 9.05456 12 12.0001" stroke="#9A7D8C" stroke-width="2" stroke-linecap="round" stroke-linejoin="round"/>
</svg>
