<svg width="100" height="100" viewBox="0 0 100 100" fill="none" xmlns="http://www.w3.org/2000/svg">
<rect width="100" height="100" rx="12" fill="#F7F7F7"/>
<path d="M24.5769 55.4949V41.9266V41.3367H54.0732V56.0848L51.1235 59.0344H28.1165L24.5769 55.4949Z" fill="#F7F7F7"/>
<path d="M22.2171 36.0273L25.1667 28.9482H52.8932L55.8429 34.2576L57.0227 39.5669L53.4832 43.1064L49.9436 43.6964L45.8141 40.7467L41.0947 43.1064L36.9653 43.6964L33.4257 40.7467L27.5264 43.6964L23.397 42.5165L21.6272 39.5669L22.2171 36.0273Z" fill="url(#paint0_linear_162_12539)"/>
<path d="M24.3755 42.8806C22.3435 41.4624 21.4151 38.9251 22.0519 36.5303L24.1586 30.8587C24.5097 29.6029 25.6525 28.7331 26.9565 28.7294H34.9492M24.3755 42.8806C25.9329 43.9605 27.9194 44.2119 29.6967 43.554C31.4739 42.896 32.8179 41.4117 33.2967 39.5781L33.7205 36.5505L34.9492 28.7294M24.3755 42.8806L24.2367 53.8983C24.2205 55.247 24.745 56.5461 25.693 57.5055C26.6411 58.465 27.9338 59.0049 29.2826 59.0048H34.268M34.9492 28.7294H43.6786M54.651 42.8806C56.5614 41.5472 57.5076 39.2139 57.0654 36.9264C57.01 36.6655 56.9254 36.4116 56.8131 36.1696L54.4668 30.8587C54.1156 29.6029 52.9729 28.7331 51.6688 28.7294H43.6786M54.651 42.8806C53.0936 43.9605 51.1071 44.2119 49.3298 43.554C47.5526 42.896 46.2086 41.4117 45.7298 39.5781L45.316 36.5303M54.651 42.8806L54.4541 53.9589C54.4541 56.7457 52.195 59.0048 49.4082 59.0048H44.3623M45.316 36.5303L43.6786 28.7294M45.316 36.5303L45.326 37.9987C45.326 41.2132 42.7201 43.8191 39.5056 43.8191C36.2911 43.8191 33.6852 41.2132 33.6852 37.9987L33.7104 36.5303M44.3623 59.0048L44.3623 56.4818C44.3623 53.6951 42.1031 51.4359 39.3164 51.4359C36.5296 51.4359 34.2705 53.6951 34.2705 56.4818V59.0048H44.3623Z" stroke="url(#paint1_linear_162_12539)" stroke-width="2" stroke-linecap="round" stroke-linejoin="round"/>
<path d="M46.4038 68.1022V54.5339V53.944H75.9001V68.6921L72.9504 71.6417H49.9434L46.4038 68.1022Z" fill="#F7F7F7"/>
<path d="M44.0443 48.6346L46.9939 41.5555H74.7204L77.67 46.8649L78.8499 52.1742L75.3103 55.7137L71.7708 56.3037L67.6413 53.354L62.9219 55.7137L58.7924 56.3037L55.2528 53.354L49.3536 56.3037L45.2241 55.1238L43.4543 52.1742L44.0443 48.6346Z" fill="url(#paint2_linear_162_12539)"/>
<path d="M46.2027 55.4879C44.1707 54.0697 43.2422 51.5324 43.879 49.1376L45.9857 43.466C46.3368 42.2102 47.4796 41.3404 48.7837 41.3367H56.7764M46.2027 55.4879C47.76 56.5678 49.7466 56.8192 51.5238 56.1613C53.3011 55.5033 54.6451 54.019 55.1238 52.1854L55.5477 49.1578L56.7764 41.3367M46.2027 55.4879L46.0638 66.5056C46.0477 67.8543 46.5721 69.1534 47.5202 70.1128C48.4682 71.0723 49.7609 71.6122 51.1098 71.6121H56.0951M56.7764 41.3367H65.5058M76.4781 55.4879C78.3886 54.1545 79.3348 51.8212 78.8926 49.5337C78.8372 49.2728 78.7525 49.0189 78.6403 48.7769L76.2939 43.466C75.9428 42.2102 74.8 41.3404 73.496 41.3367H65.5058M76.4781 55.4879C74.9208 56.5678 72.9342 56.8192 71.157 56.1613C69.3797 55.5033 68.0357 54.019 67.5569 52.1854L67.1432 49.1376M76.4781 55.4879L76.2812 66.5662C76.2812 69.353 74.0221 71.6121 71.2353 71.6121H66.1894M67.1432 49.1376L65.5058 41.3367M67.1432 49.1376L67.1532 50.606C67.1532 53.8205 64.5473 56.4264 61.3327 56.4264C58.1182 56.4264 55.5123 53.8205 55.5123 50.606L55.5375 49.1376M66.1894 71.6121L66.1894 69.0891C66.1894 66.3024 63.9303 64.0432 61.1435 64.0432C58.3568 64.0432 56.0976 66.3024 56.0976 69.0891V71.6121H66.1894Z" stroke="url(#paint3_linear_162_12539)" stroke-width="2" stroke-linecap="round" stroke-linejoin="round"/>
<defs>
<linearGradient id="paint0_linear_162_12539" x1="23.1661" y1="29.9101" x2="33.3376" y2="51.4206" gradientUnits="userSpaceOnUse">
<stop stop-color="#F996C3"/>
<stop offset="1" stop-color="#401529"/>
</linearGradient>
<linearGradient id="paint1_linear_162_12539" x1="29.9474" y1="29.2734" x2="60.41" y2="45.1914" gradientUnits="userSpaceOnUse">
<stop stop-color="#A71E5C"/>
<stop offset="1" stop-color="#1D1117"/>
</linearGradient>
<linearGradient id="paint2_linear_162_12539" x1="44.9933" y1="42.5174" x2="55.1648" y2="64.0279" gradientUnits="userSpaceOnUse">
<stop stop-color="#F996C3"/>
<stop offset="1" stop-color="#401529"/>
</linearGradient>
<linearGradient id="paint3_linear_162_12539" x1="51.7745" y1="41.8807" x2="82.2372" y2="57.7987" gradientUnits="userSpaceOnUse">
<stop stop-color="#A71E5C"/>
<stop offset="1" stop-color="#1D1117"/>
</linearGradient>
</defs>
</svg>
