<svg width="100" height="100" viewBox="0 0 100 100" fill="none" xmlns="http://www.w3.org/2000/svg">
<rect width="100" height="100" rx="12" fill="#F7F7F7"/>
<path d="M32.1246 31H63.7488V62.6242H48.9993L45.9993 58.2166L40.4993 57.7166L36.9993 62.6242H32.1246V31Z" fill="url(#paint0_linear_162_12543)"/>
<path d="M48.8991 63.5206C48.8327 66.7389 46.1815 69.3005 42.9628 69.2564C39.7441 69.2123 37.1641 66.579 37.1858 63.3601C37.2076 60.1411 39.8228 57.5429 43.0418 57.5422C44.6113 57.5582 46.1102 58.197 47.2087 59.3182C48.3072 60.4394 48.9153 61.951 48.8991 63.5206ZM48.8991 63.5206L64.3922 63.5206M64.4032 49.0368V63.5206H65.0935M76.8082 63.5206C80.2929 63.4469 83.0612 60.568 82.9982 57.0831L80.4133 42.5992C80.4872 40.9114 79.8655 39.2672 78.6934 38.0504C77.5214 36.8337 75.9016 36.151 74.2122 36.1616H64.3922M64.3922 36.1616V49.0368M64.3922 36.1616L64.3922 33.9617C64.3974 33.1808 64.0919 32.4299 63.5431 31.8744C62.9943 31.3189 62.2472 31.0044 61.4663 31H35.1083C34.3279 31.0036 33.5809 31.3171 33.0317 31.8715C32.4824 32.4259 32.1759 33.1758 32.1796 33.9562V60.5617C32.1759 61.3421 32.4824 62.092 33.0317 62.6464C33.5809 63.2007 34.3279 63.5142 35.1083 63.5179H37.1735M64.3977 49.034H81.5683M17 36.4999H25.6073M19.7499 44.7496H25.2498M21.4274 52.9994H25.2498M76.7972 63.5206C76.7307 66.7389 74.0796 69.3005 70.8609 69.2564C67.6421 69.2123 65.0622 66.579 65.0839 63.3601C65.1056 60.1411 67.7208 57.5429 70.9399 57.5422C72.5094 57.5582 74.0083 58.197 75.1068 59.3182C76.2053 60.4394 76.8133 61.951 76.7972 63.5206Z" stroke="url(#paint1_linear_162_12543)" stroke-width="2" stroke-linecap="round" stroke-linejoin="round"/>
<defs>
<linearGradient id="paint0_linear_162_12543" x1="33.4996" y1="33.0624" x2="63.0613" y2="61.9367" gradientUnits="userSpaceOnUse">
<stop stop-color="#F996C3"/>
<stop offset="1" stop-color="#401529"/>
</linearGradient>
<linearGradient id="paint1_linear_162_12543" x1="32.1246" y1="31.6875" x2="77.4984" y2="66.7491" gradientUnits="userSpaceOnUse">
<stop stop-color="#A71E5C"/>
<stop offset="1" stop-color="#1D1117"/>
</linearGradient>
</defs>
</svg>
