<svg width="100" height="100" viewBox="0 0 100 100" fill="none" xmlns="http://www.w3.org/2000/svg">
<rect width="100" height="100" rx="12" fill="#F7F7F7"/>
<rect x="35" y="29" width="22" height="24" fill="url(#paint0_linear_162_12541)"/>
<rect x="23" y="40" width="18" height="13" fill="url(#paint1_linear_162_12541)"/>
<path d="M40.754 64.6992C40.7979 67.2134 39.3093 69.5045 36.987 70.497C34.6647 71.4895 31.9697 70.9865 30.1669 69.2241C28.3641 67.4616 27.8114 64.7896 28.7682 62.4622C29.7251 60.1347 32.0015 58.6139 34.529 58.6135C36.1657 58.5992 37.741 59.2324 38.9084 60.3737C40.0759 61.515 40.7397 63.0709 40.754 64.6992ZM40.754 64.6992L57.23 64.6994M70.4001 64.6992C70.4439 67.2134 68.9554 69.5045 66.6331 70.497C64.3107 71.4895 61.6157 70.9865 59.8129 69.2241C58.0101 67.4616 57.4575 64.7896 58.4143 62.4622C59.3711 60.1347 61.6475 58.6139 64.1751 58.6135C65.8117 58.5992 67.3871 59.2324 68.5545 60.3737C69.7219 61.515 70.3858 63.0709 70.4001 64.6992ZM70.4001 64.6992C74.0451 64.6992 77 61.7596 77 58.1332L75.476 49.9522H57.23M23 53.9873V40.1983H41.474V53.9873H23ZM23 53.9873V61.6849C23.0103 62.4952 23.3439 63.2682 23.9275 63.8337C24.511 64.3991 25.2965 64.7105 26.111 64.6994H28.307M23 53.9873L57.23 53.9875M57.23 64.6994H57.962M57.23 64.6994V53.9875M57.23 53.9875V49.9522M57.23 36.8437H67.664C70.6333 36.7158 73.2708 38.7159 73.934 41.5982C74.0953 42.1841 74.2017 42.7836 74.252 43.389L75.473 49.9552M57.23 36.8437V49.9522M57.23 36.8437V29H34.367V40.1984" stroke="url(#paint2_linear_162_12541)" stroke-width="2" stroke-linecap="round" stroke-linejoin="round"/>
<defs>
<linearGradient id="paint0_linear_162_12541" x1="35.9565" y1="30.5652" x2="56.8932" y2="47.4764" gradientUnits="userSpaceOnUse">
<stop stop-color="#F996C3"/>
<stop offset="1" stop-color="#401529"/>
</linearGradient>
<linearGradient id="paint1_linear_162_12541" x1="23.7826" y1="40.8478" x2="35.1571" y2="54.7255" gradientUnits="userSpaceOnUse">
<stop stop-color="#F996C3"/>
<stop offset="1" stop-color="#401529"/>
</linearGradient>
<linearGradient id="paint2_linear_162_12541" x1="35.3748" y1="29.7547" x2="79.8997" y2="55.3963" gradientUnits="userSpaceOnUse">
<stop stop-color="#A71E5C"/>
<stop offset="1" stop-color="#1D1117"/>
</linearGradient>
</defs>
</svg>
