<svg width="24" height="24" viewBox="0 0 24 24" fill="none" xmlns="http://www.w3.org/2000/svg">
<path fill-rule="evenodd" clip-rule="evenodd" d="M10.6901 7.84996C11.1935 7.09341 11.067 6.0823 10.3927 5.47312C9.71836 4.86394 8.69963 4.8404 7.99792 5.41779C7.2962 5.99517 7.1231 6.99935 7.59102 7.77835C8.05893 8.55735 9.02675 8.87624 9.86608 8.52796C10.2015 8.38801 10.4882 8.15215 10.6901 7.84996Z" stroke="#1D1117" stroke-width="2" stroke-linecap="round" stroke-linejoin="round"/>
<path fill-rule="evenodd" clip-rule="evenodd" d="M10.6901 18.1649C11.1935 17.4084 11.067 16.3972 10.3927 15.7881C9.71836 15.1789 8.69963 15.1553 7.99792 15.7327C7.2962 16.3101 7.1231 17.3143 7.59102 18.0933C8.05893 18.8723 9.02675 19.1912 9.86608 18.8429C10.2015 18.703 10.4882 18.4671 10.6901 18.1649V18.1649Z" stroke="#1D1117" stroke-width="2" stroke-linecap="round" stroke-linejoin="round"/>
<path fill-rule="evenodd" clip-rule="evenodd" d="M13.3101 13.0072C12.8067 12.2506 12.9332 11.2395 13.6075 10.6303C14.2818 10.0212 15.3006 9.99763 16.0023 10.575C16.704 11.1524 16.8771 12.1566 16.4092 12.9356C15.9413 13.7146 14.9734 14.0335 14.1341 13.6852C13.7987 13.5452 13.512 13.3094 13.3101 13.0072V13.0072Z" stroke="#1D1117" stroke-width="2" stroke-linecap="round" stroke-linejoin="round"/>
<path d="M11 5.82593C10.4477 5.82593 10 6.27364 10 6.82593C10 7.37821 10.4477 7.82593 11 7.82593V5.82593ZM19 7.82593C19.5523 7.82593 20 7.37821 20 6.82593C20 6.27364 19.5523 5.82593 19 5.82593V7.82593ZM7.327 7.82593C7.87928 7.82593 8.327 7.37821 8.327 6.82593C8.327 6.27364 7.87928 5.82593 7.327 5.82593V7.82593ZM5 5.82593C4.44772 5.82593 4 6.27364 4 6.82593C4 7.37821 4.44772 7.82593 5 7.82593V5.82593ZM11 16.1419C10.4477 16.1419 10 16.5896 10 17.1419C10 17.6942 10.4477 18.1419 11 18.1419V16.1419ZM19 18.1419C19.5523 18.1419 20 17.6942 20 17.1419C20 16.5896 19.5523 16.1419 19 16.1419V18.1419ZM7.327 18.1419C7.87928 18.1419 8.327 17.6942 8.327 17.1419C8.327 16.5896 7.87928 16.1419 7.327 16.1419V18.1419ZM5 16.1419C4.44772 16.1419 4 16.5896 4 17.1419C4 17.6942 4.44772 18.1419 5 18.1419V16.1419ZM13 12.9839C13.5523 12.9839 14 12.5362 14 11.9839C14 11.4316 13.5523 10.9839 13 10.9839V12.9839ZM5 10.9839C4.44772 10.9839 4 11.4316 4 11.9839C4 12.5362 4.44772 12.9839 5 12.9839V10.9839ZM16.673 10.9839C16.1207 10.9839 15.673 11.4316 15.673 11.9839C15.673 12.5362 16.1207 12.9839 16.673 12.9839V10.9839ZM19 12.9839C19.5523 12.9839 20 12.5362 20 11.9839C20 11.4316 19.5523 10.9839 19 10.9839V12.9839ZM11 7.82593H19V5.82593H11V7.82593ZM7.327 5.82593H5V7.82593H7.327V5.82593ZM11 18.1419H19V16.1419H11V18.1419ZM7.327 16.1419H5V18.1419H7.327V16.1419ZM13 10.9839H5V12.9839H13V10.9839ZM16.673 12.9839H19V10.9839H16.673V12.9839Z" fill="#1D1117"/>
</svg>
