<svg width="86" height="135" viewBox="0 0 86 135" fill="none" xmlns="http://www.w3.org/2000/svg">
<path fill-rule="evenodd" clip-rule="evenodd" d="M52.5526 77.2558C45.5521 74.5357 37.2812 76.3031 30.7363 81.7848C27.7331 84.2909 24.3571 90.5113 24.3571 90.5113C24.3571 90.5113 28.0093 88.9303 30.1909 89.1996C23.4734 92.2028 23.6806 100.895 24.3019 105.562C31.91 105.534 36.4804 106.162 40.0359 100.467C39.8702 101.53 39.5664 102.717 38.4411 104.326C40.4156 104.664 46.7741 103.926 50.7507 100.812C56.5845 96.2554 57.9653 82.7168 57.9239 75.4608C57.9032 72.147 57.3992 66.1682 52.9738 65.7539C48.6036 65.3466 46.8707 69.7099 47.5611 72.5819C48.3482 75.8681 53.0083 75.7094 54.5134 73.7625C54.4788 72.5888 54.2786 71.7534 53.8782 70.5867C53.5123 71.1321 52.9324 72.2367 51.4687 72.6371C49.2526 73.2516 49.2112 67.9632 51.9934 68.2946C54.8724 68.6398 55.1692 73.4035 54.9621 75.737C53.8851 88.0811 44.4268 94.3499 34.9891 97.9675C42.5144 92.4651 50.7507 87.7636 52.5526 77.2558ZM57.0954 68.1565C57.9377 64.7184 58.3243 53.4374 57.413 44.842C57.0195 41.1416 56.2877 38.4352 54.0439 36.4814C52.2696 34.9419 47.9754 33.2159 45.628 33.4644C52.4284 31.124 47.568 23.0188 43.5569 27.03C48.0375 28.2382 45.9525 31.9801 44.5925 32.3184C39.9599 33.4782 39.2488 28.9286 42.5213 23.2674C45.2483 18.5451 44.9929 13.091 38.3651 13.1877C34.7544 13.2429 31.6546 16.7018 35.6105 18.0687C37.0534 18.5658 39.1522 17.979 41.3821 16.2737C41.1474 15.9562 40.9472 15.6524 40.6158 15.39C40.4501 15.7628 39.7114 16.253 39.097 16.3911C34.4713 17.4129 35.1134 14.4028 39.2557 14.4373C40.7677 14.4511 42.3349 16.5223 42.2658 17.9859C42.1899 19.6014 41.175 22.1006 38.0476 24.517C34.1469 27.5271 19.1033 29.1564 20.3253 49.4953C21.0778 48.508 21.7958 47.2515 23.0178 46.6302C19.4347 52.6089 20.2217 56.268 22.2376 62.5851C22.0029 53.3338 26.2971 51.4076 29.7974 46.8235C32.1378 43.7581 36.1904 33.9822 32.3242 31.2828C27.2706 34.1479 25.4963 40.1888 25.1718 45.0146C24.5159 39.961 25.5239 35.3699 29.4246 31.9525C31.9031 29.7847 35.6381 27.6859 38.7034 26.4846C36.4459 33.8787 40.1049 34.7831 43.5638 36.2122C45.704 37.0959 43.6673 39.8022 42.1485 40.4028C42.5627 41.0104 46.3046 40.3545 46.8431 38.4836C47.285 36.9509 46.1873 36.0189 46.1873 36.0189C54.4305 35.2594 57.6684 47.8314 52.8426 52.098C52.8426 52.098 55.5558 53.106 55.9908 51.3593C56.3153 51.96 55.9908 59.5957 55.5558 62.4332C55.328 63.9106 55.0933 65.2292 54.9828 65.892C56.0115 66.3753 56.6328 67.3211 57.0954 68.1565ZM43.1564 14.313C44.1092 13.1532 44.7374 11.2063 44.3784 9.70122C43.833 7.42984 40.3258 6.07668 38.1649 6.22166C30.4464 6.73255 33.7879 13.0358 38.6482 10.937C39.4698 10.5849 40.5606 9.70122 40.8022 8.783C40.6434 8.54137 40.3604 8.31354 39.884 8.13404C39.2972 9.90143 35.4103 9.89453 35.6588 8.61731C35.8245 7.78194 37.6402 7.48507 38.9382 7.58172C39.9461 7.65767 40.8782 8.16856 41.534 8.93489C42.5489 10.1086 42.7353 12.0969 41.8516 13.45C42.4591 13.6502 42.7767 13.9333 43.1564 14.313ZM42.1899 6.89824C46.2287 2.99754 43.1081 0.194557 39.2557 0.00815189C37.7714 -0.067791 36.294 0.387866 35.2653 1.3337C31.406 4.86849 36.9567 4.66138 38.1028 3.34964C40.9265 0.132422 44.2887 3.85362 40.7677 6.26998C41.3752 6.38045 41.8999 6.62899 42.1899 6.89824Z" fill="#7F1645"/>
<path fill-rule="evenodd" clip-rule="evenodd" d="M49.2591 51.8633C52.7042 51.8633 55.4933 54.6525 55.4933 58.0975C55.4933 61.5425 52.7042 64.3317 49.2591 64.3317C45.8141 64.3317 43.0249 61.5425 43.0249 58.0975C43.0249 54.6594 45.8141 51.8633 49.2591 51.8633ZM47.4641 53.3821C48.5204 53.0922 49.5422 53.465 49.7493 54.2175C49.9564 54.97 49.266 55.8123 48.2028 56.1023C47.1465 56.3922 46.1248 56.0194 45.9176 55.2669C45.7105 54.5075 46.4078 53.6652 47.4641 53.3821Z" fill="#A71E5C"/>
<path fill-rule="evenodd" clip-rule="evenodd" d="M40.726 61.8459C44.3644 61.8459 47.3193 64.7939 47.3193 68.4392C47.3193 72.0775 44.3713 75.0324 40.726 75.0324C37.0877 75.0324 34.1328 72.0844 34.1328 68.4392C34.1328 64.8008 37.0877 61.8459 40.726 61.8459ZM39.1934 63.6133C40.3877 63.2889 41.5407 63.71 41.7685 64.5523C41.9963 65.3945 41.2231 66.3473 40.0287 66.6718C38.8344 66.9963 37.6814 66.5751 37.4536 65.7328C37.2258 64.8837 38.0059 63.9378 39.1934 63.6133Z" fill="#A71E5C"/>
<path fill-rule="evenodd" clip-rule="evenodd" d="M37.4949 52.001C40.2496 52.001 42.4865 54.2378 42.4865 56.9925C42.4865 59.7471 40.2496 61.984 37.4949 61.984C34.7403 61.984 32.5034 59.7471 32.5034 56.9925C32.4965 54.2378 34.7334 52.001 37.4949 52.001ZM36.5836 53.3403C37.488 53.0918 38.3648 53.4163 38.5374 54.0583C38.71 54.7004 38.1232 55.4184 37.2188 55.6669C36.3144 55.9155 35.4376 55.591 35.265 54.9489C35.0924 54.3069 35.6792 53.582 36.5836 53.3403Z" fill="#A71E5C"/>
<path fill-rule="evenodd" clip-rule="evenodd" d="M36.984 41.2866C39.8422 41.2866 42.155 43.5994 42.155 46.4576C42.155 49.3159 39.8422 51.6287 36.984 51.6287C34.1258 51.6287 31.813 49.3159 31.813 46.4576C31.813 43.5994 34.1258 41.2866 36.984 41.2866ZM35.8449 42.7433C36.8735 42.5017 37.8194 42.8055 37.9575 43.413C38.1024 44.0206 37.3844 44.711 36.3558 44.9526C35.3271 45.1942 34.3812 44.8905 34.2432 44.2829C34.1051 43.6754 34.8231 42.985 35.8449 42.7433Z" fill="#A71E5C"/>
<path fill-rule="evenodd" clip-rule="evenodd" d="M48.0439 40.5273C51.054 40.5273 53.498 42.9644 53.498 45.9814C53.498 48.9915 51.0609 51.4355 48.0439 51.4355C45.0338 51.4355 42.5898 48.9984 42.5898 45.9814C42.5898 42.9644 45.0269 40.5273 48.0439 40.5273ZM47.0221 42.0186C48.0094 41.7493 48.9621 42.1014 49.1554 42.7987C49.3488 43.496 48.6998 44.2831 47.7125 44.5523C46.7253 44.8216 45.7725 44.4695 45.5792 43.7722C45.3859 43.0749 46.0349 42.2878 47.0221 42.0186Z" fill="#A71E5C"/>
<path fill-rule="evenodd" clip-rule="evenodd" d="M28.6651 51.0901C30.7225 51.0901 32.3932 52.7608 32.3932 54.8182C32.3932 56.8756 30.7225 58.5463 28.6651 58.5463C26.6078 58.5463 24.937 56.8756 24.937 54.8182C24.937 52.7608 26.6078 51.0901 28.6651 51.0901ZM28.0507 52.3742C28.7549 52.1947 29.4314 52.4847 29.5626 53.0163C29.7007 53.5479 29.2381 54.1278 28.5408 54.3073C27.8366 54.4868 27.1601 54.1968 27.0289 53.6652C26.8908 53.1336 27.3465 52.5537 28.0507 52.3742Z" fill="#A71E5C"/>
<path fill-rule="evenodd" clip-rule="evenodd" d="M28.6652 59.5613C31.6822 59.5613 34.133 62.0053 34.133 65.0292C34.133 68.0462 31.6891 70.4971 28.6652 70.4971C25.6481 70.4971 23.1973 68.0531 23.1973 65.0292C23.2042 62.0122 25.6481 59.5613 28.6652 59.5613ZM27.3258 61.1216C28.2854 60.8592 29.2175 61.1975 29.4039 61.881C29.5903 62.5645 28.962 63.3308 27.9955 63.5932C27.0358 63.8555 26.1038 63.5172 25.9174 62.8337C25.731 62.1502 26.3593 61.3839 27.3258 61.1216Z" fill="#A71E5C"/>
<path fill-rule="evenodd" clip-rule="evenodd" d="M31.7854 71.063C34.1328 71.063 36.0313 72.9616 36.0313 75.3089C36.0313 77.6562 34.1328 79.5548 31.7854 79.5548C29.4381 79.5548 27.5396 77.6562 27.5396 75.3089C27.5396 72.9685 29.4381 71.063 31.7854 71.063ZM30.8396 72.3954C31.5576 72.2021 32.2549 72.4507 32.393 72.9616C32.5311 73.4724 32.0616 74.0455 31.3436 74.2457C30.6256 74.439 29.9283 74.1905 29.7902 73.6796C29.6452 73.1687 30.1216 72.5957 30.8396 72.3954Z" fill="#A71E5C"/>
<path fill-rule="evenodd" clip-rule="evenodd" d="M24.868 76.7937C27.2982 76.7937 29.2658 78.7613 29.2658 81.1915C29.2658 83.6217 27.2982 85.5893 24.868 85.5893C22.4378 85.5893 20.4702 83.6217 20.4702 81.1915C20.4771 78.7682 22.4447 76.7937 24.868 76.7937ZM23.6046 78.1745C24.3157 77.781 25.1234 77.8707 25.3996 78.3747C25.6827 78.8787 25.3306 79.6105 24.6126 80.004C23.9015 80.3975 23.0937 80.3078 22.8175 79.8038C22.5414 79.2998 22.8866 78.568 23.6046 78.1745Z" fill="#A71E5C"/>
<path fill-rule="evenodd" clip-rule="evenodd" d="M23.929 69.6477C25.8068 69.6477 27.3257 71.1666 27.3257 73.0444C27.3257 74.9223 25.8068 76.4411 23.929 76.4411C22.0511 76.4411 20.5322 74.9223 20.5322 73.0444C20.5253 71.1666 22.0511 69.6477 23.929 69.6477ZM23.1419 70.6971C23.6873 70.5452 24.212 70.7385 24.3225 71.1251C24.426 71.5118 24.0739 71.9467 23.5285 72.0917C22.9831 72.2436 22.4584 72.0503 22.348 71.6636C22.2444 71.2839 22.5965 70.849 23.1419 70.6971Z" fill="#A71E5C"/>
<path d="M15.4992 122.2L12.1992 132.155H10.2385L7.78069 124.789L5.28148 132.155H3.30006L0 122.2H1.91928L4.39088 129.767L6.96603 122.2H8.67129L11.1912 129.808L13.7318 122.2H15.4992Z" fill="black"/>
<path d="M16.9905 123.001C16.7696 122.801 16.666 122.546 16.666 122.242C16.666 121.938 16.7765 121.683 16.9905 121.482C17.2114 121.282 17.4807 121.179 17.7983 121.179C18.1227 121.179 18.392 121.275 18.606 121.469C18.8269 121.662 18.9305 121.911 18.9305 122.2C18.9305 122.511 18.82 122.774 18.6129 122.988C18.3989 123.202 18.1296 123.305 17.7983 123.305C17.4807 123.305 17.2045 123.202 16.9905 123.001ZM16.9007 124.555H18.675V132.149H16.9007V124.555Z" fill="black"/>
<path d="M27.6227 125.314C28.2026 125.873 28.4925 126.701 28.4925 127.799V132.149H26.7182V128.027C26.7182 127.364 26.5595 126.86 26.2488 126.529C25.9381 126.197 25.4893 126.025 24.9094 126.025C24.2536 126.025 23.7358 126.225 23.356 126.612C22.9763 127.005 22.7899 127.571 22.7899 128.31V132.149H21.0156V124.554H22.7071V125.535C23.0039 125.183 23.3699 124.92 23.8186 124.741C24.2674 124.561 24.7644 124.471 25.3237 124.471C26.2764 124.471 27.0427 124.754 27.6227 125.314Z" fill="black"/>
<path d="M37.93 128.924H31.972C32.0755 129.483 32.3517 129.925 32.7866 130.257C33.2285 130.581 33.7739 130.747 34.4298 130.747C35.2651 130.747 35.9486 130.471 36.494 129.925L37.4468 131.023C37.1016 131.43 36.6735 131.741 36.1557 131.948C35.6311 132.155 35.0442 132.259 34.3953 132.259C33.5599 132.259 32.8281 132.093 32.1929 131.762C31.5578 131.43 31.0676 130.968 30.7224 130.374C30.3772 129.78 30.2046 129.11 30.2046 128.365C30.2046 127.626 30.3703 126.956 30.7086 126.37C31.0469 125.776 31.5094 125.313 32.1101 124.982C32.7107 124.651 33.3804 124.485 34.126 124.485C34.8647 124.485 35.5275 124.651 36.1074 124.975C36.6873 125.3 37.143 125.762 37.4744 126.356C37.7989 126.95 37.9646 127.633 37.9646 128.413C37.9577 128.517 37.9508 128.696 37.93 128.924ZM32.6762 126.397C32.2827 126.736 32.041 127.184 31.9582 127.744H36.2662C36.1903 127.191 35.9555 126.749 35.5689 126.404C35.1823 126.066 34.699 125.893 34.1191 125.893C33.553 125.893 33.0697 126.059 32.6762 126.397Z" fill="black"/>
<path d="M48.1961 127.875C48.5205 128.296 48.6793 128.821 48.6793 129.449C48.6793 130.312 48.3479 130.975 47.6852 131.444C47.0224 131.914 46.0559 132.148 44.7855 132.148H39.8354V122.2H44.4956C45.6692 122.2 46.5736 122.428 47.2088 122.89C47.844 123.353 48.1615 123.981 48.1615 124.789C48.1615 125.279 48.0442 125.721 47.8233 126.094C47.6023 126.467 47.2848 126.763 46.8843 126.977C47.4366 127.157 47.8716 127.454 48.1961 127.875ZM41.6857 123.65V126.391H44.3023C44.9443 126.391 45.4414 126.273 45.7866 126.045C46.1318 125.811 46.3044 125.472 46.3044 125.031C46.3044 124.575 46.1318 124.23 45.7866 124.002C45.4414 123.767 44.9443 123.657 44.3023 123.657H41.6857V123.65ZM46.8153 129.263C46.8153 128.303 46.0973 127.827 44.6682 127.827H41.6788V130.699H44.6682C46.0973 130.699 46.8153 130.222 46.8153 129.263Z" fill="black"/>
<path d="M57.5922 128.924H51.6341C51.7377 129.483 52.0138 129.925 52.4488 130.257C52.8906 130.581 53.436 130.747 54.0919 130.747C54.9273 130.747 55.6107 130.471 56.1561 129.925L57.1089 131.023C56.7637 131.43 56.3356 131.741 55.8179 131.948C55.2932 132.155 54.7063 132.259 54.0574 132.259C53.222 132.259 52.4902 132.093 51.855 131.762C51.2199 131.43 50.7297 130.968 50.3845 130.374C50.0393 129.78 49.8667 129.11 49.8667 128.365C49.8667 127.626 50.0324 126.956 50.3707 126.37C50.709 125.776 51.1715 125.313 51.7722 124.982C52.3728 124.651 53.0425 124.485 53.7881 124.485C54.5268 124.485 55.1896 124.651 55.7695 124.975C56.3495 125.3 56.8051 125.762 57.1365 126.356C57.461 126.95 57.6267 127.633 57.6267 128.413C57.6198 128.517 57.6129 128.696 57.5922 128.924ZM52.3383 126.397C51.9448 126.736 51.7031 127.184 51.6203 127.744H55.9283C55.8524 127.191 55.6176 126.749 55.231 126.404C54.8444 126.066 54.3611 125.893 53.7812 125.893C53.2151 125.893 52.7318 126.059 52.3383 126.397Z" fill="black"/>
<path d="M63.7161 124.471V126.163C63.5642 126.135 63.4261 126.121 63.3018 126.121C62.6115 126.121 62.0729 126.322 61.6794 126.729C61.2928 127.129 61.0995 127.709 61.0995 128.469V132.149H59.3252V124.554H61.0166V125.666C61.5275 124.872 62.4319 124.471 63.7161 124.471Z" fill="black"/>
<path d="M69.6189 124.471V126.163C69.467 126.135 69.3289 126.121 69.2047 126.121C68.5143 126.121 67.9758 126.322 67.5823 126.729C67.1956 127.129 67.0023 127.709 67.0023 128.469V132.149H65.228V124.554H66.9195V125.666C67.4304 124.872 68.3279 124.471 69.6189 124.471Z" fill="black"/>
<path d="M78.5179 124.554L74.9624 132.756C74.6311 133.578 74.2306 134.165 73.7543 134.496C73.2779 134.827 72.7049 135 72.0352 135C71.6555 135 71.2827 134.938 70.9098 134.814C70.537 134.689 70.2402 134.517 69.9985 134.303L70.7096 132.998C70.8822 133.157 71.0824 133.288 71.3172 133.385C71.5519 133.481 71.7866 133.53 72.0214 133.53C72.3321 133.53 72.5944 133.447 72.7946 133.288C72.9948 133.129 73.1881 132.86 73.3538 132.48L73.485 132.183L70.1711 124.561H72.0214L74.4101 130.174L76.8127 124.561H78.5179V124.554Z" fill="black"/>
<path d="M79.7602 124.04C80.4602 124.74 81.3102 125.09 82.3002 125.09C83.2902 125.09 84.1402 124.74 84.8502 124.04C85.5502 123.34 85.9002 122.49 85.9002 121.5C85.9002 120.51 85.5502 119.66 84.8502 118.96C84.1402 118.26 83.2902 117.91 82.3002 117.91C81.3102 117.91 80.4602 118.26 79.7602 118.96C79.0502 119.66 78.7002 120.51 78.7002 121.5C78.7002 122.49 79.0502 123.34 79.7602 124.04ZM80.5102 123.68H81.4002V121.91H81.5802C81.8502 121.91 82.0602 121.96 82.1902 122.07C82.3202 122.18 82.4902 122.41 82.7002 122.77L83.2402 123.68H84.2802L83.4902 122.37C83.3602 122.15 83.1902 121.95 82.9702 121.78V121.75C83.5702 121.6 83.9202 121.16 83.9202 120.64C83.9202 119.87 83.4102 119.34 82.5002 119.34H80.5102V123.68ZM82.2602 120.12C82.7302 120.12 82.9602 120.29 82.9602 120.64C82.9602 120.98 82.7302 121.15 82.2602 121.15H81.4002V120.12H82.2602ZM80.0802 119.29C80.6902 118.68 81.4302 118.37 82.3002 118.37C83.1502 118.37 83.8902 118.68 84.5102 119.29C85.1302 119.91 85.4402 120.65 85.4402 121.5C85.4402 122.35 85.1302 123.09 84.5102 123.7C83.8902 124.32 83.1502 124.63 82.3002 124.63C81.4302 124.63 80.6902 124.32 80.0802 123.7C79.4702 123.09 79.1602 122.35 79.1602 121.5C79.1602 120.65 79.4702 119.91 80.0802 119.29Z" fill="black"/>
</svg>
