<svg width="568" height="1081" viewBox="0 0 568 1081" fill="none" xmlns="http://www.w3.org/2000/svg">
<mask id="mask0_85_13474" style="mask-type:alpha" maskUnits="userSpaceOnUse" x="0" y="0" width="568" height="1081">
<path d="M558.986 307.625C592.098 123.152 516.411 0.174072 516.411 0.174072H51.7778C51.7778 0.174072 -23.9067 123.163 9.20324 307.625C42.3159 492.11 198.406 544.133 240.981 643.46C283.556 742.798 259.902 775.911 259.902 931.998C259.902 1088.1 293.165 1031.87 47.0457 1081H521.149C275.022 1031.87 308.292 1088.09 308.292 931.998C308.292 775.908 284.641 742.795 327.214 643.46C369.788 544.133 525.879 492.099 558.992 307.625H558.986Z" fill="#F1F1F1"/>
</mask>
<g mask="url(#mask0_85_13474)">
<rect x="-62" width="699" height="1081" fill="#A71E5C"/>
</g>
</svg>
