<svg width="768" height="769" viewBox="0 0 768 769" fill="none" xmlns="http://www.w3.org/2000/svg">
<path fill-rule="evenodd" clip-rule="evenodd" d="M-1.6807e-05 384.5C-2.60817e-05 172.32 171.694 7.21602e-05 384 6.288e-05C595.904 5.36174e-05 768 171.918 768 384.5C768 596.679 596.306 769 384 769C172.096 769 -7.53237e-06 596.68 -1.6807e-05 384.5ZM102.936 473.881C84.0376 404.228 108.565 336.991 157.621 323.705C206.676 310.418 262.165 355.512 281.064 425.164C299.962 494.817 275.434 562.054 226.379 575.341C176.921 588.627 121.834 543.131 102.936 473.881Z" fill="#A71E5C"/>
</svg>
