<svg width="24" height="24" viewBox="0 0 24 24" fill="none" xmlns="http://www.w3.org/2000/svg">
<g clip-path="url(#clip0_527_23295)">
<path d="M21.5438 14.6861C21.5387 13.5542 20.9928 12.5121 20.058 11.9891C19.684 11.7798 19.2475 11.6828 18.8065 11.6816C18.3654 11.6803 17.9572 11.7954 17.6028 11.9899L17.589 11.0493C17.8267 10.8878 18.0853 10.6887 18.3065 10.469C19.1123 9.64343 19.5648 8.57095 19.581 7.40167C19.6144 5.84984 18.7618 4.39061 17.3784 3.61659C16.7428 3.26096 16.0236 3.05477 15.2743 3.07759C14.8332 3.07634 14.4086 3.13326 13.9793 3.28593C13.1672 2.19317 11.8747 1.51931 10.5141 1.49428C8.6165 1.46369 6.98575 2.71107 6.40605 4.44905C4.65237 5.03903 3.40739 6.64954 3.43492 8.53073C3.42201 10.0454 4.23748 11.4835 5.52525 12.2534L5.44404 18.541C5.44905 19.6729 5.87847 20.7477 6.6834 21.5909C6.95709 21.8913 7.31024 22.1379 7.64668 22.3261C8.28227 22.6818 8.96415 22.8671 9.6923 22.8817L13.2211 22.8925C15.3684 22.9156 17.1291 21.348 17.4726 19.3307L17.5099 19.3516C17.8839 19.5608 18.3203 19.6578 18.7614 19.659C19.5104 19.6363 20.2146 19.343 20.7409 18.7536C21.246 18.2017 21.5105 17.4658 21.5087 16.6795L21.5438 14.6861ZM5.10388 8.53163C5.12433 7.2667 6.01811 6.19566 7.21723 5.98298C7.54616 5.92148 7.84655 5.6478 7.90178 5.28592C8.1511 4.05076 9.22731 3.18008 10.455 3.17966C10.896 3.18091 11.3328 3.27803 11.7065 3.48712C12.1926 3.75914 12.5576 4.15958 12.8224 4.65156C12.9091 4.84732 13.1128 5.01027 13.3204 5.07745C13.5282 5.14479 13.778 5.13727 13.9948 5.01302C14.37 4.78121 14.8157 4.68674 15.2567 4.68796C15.6978 4.68921 16.1346 4.78634 16.5083 4.99543C17.3308 5.45568 17.8649 6.34353 17.8204 7.30081C17.8266 7.99163 17.5459 8.66907 17.045 9.12548C16.5442 9.58158 15.8776 9.89589 15.1868 9.90221C14.8997 9.88885 14.5751 9.85449 14.2925 9.74569C13.9352 9.59473 13.5644 9.73109 13.3013 10.0256C12.7917 10.6734 12.0248 11.0788 11.2009 11.0596C10.7223 11.0373 10.2483 10.9193 9.85783 10.6519C9.59598 10.5054 9.25078 10.5085 8.9757 10.6494C8.54213 10.8979 8.07576 11.0294 7.63467 11.0282C7.1936 11.0269 6.75683 10.9298 6.38313 10.7207C5.61442 10.3392 5.1177 9.47227 5.10394 8.53169L5.10388 8.53163ZM13.2636 21.1488L9.73485 21.138C9.04403 21.1443 8.42485 20.8468 7.91017 20.3626C7.43306 19.8994 7.17702 19.2161 7.17077 18.5253L7.18829 12.791C7.3586 12.8373 7.51289 12.8253 7.70422 12.8341C8.33688 12.8443 8.95726 12.7007 9.48659 12.4567C10.0309 12.7123 10.6381 12.8555 11.2706 12.8659C12.44 12.8819 13.5359 12.4149 14.3414 11.5893C14.6451 11.661 14.9322 11.6743 15.2192 11.6877C15.4106 11.6965 15.623 11.6681 15.8352 11.6395L15.7809 18.5806C15.8098 20.0204 14.6827 21.1572 13.2638 21.1489L13.2636 21.1488ZM19.4917 17.5639C19.2703 17.7838 19.0537 17.9078 18.7667 17.8945C18.1926 17.8677 17.7198 17.3087 17.7135 16.6179L17.7277 14.6622C17.7248 14.3167 17.8755 13.9593 18.0594 13.7187C18.2807 13.4987 18.4974 13.3747 18.7844 13.3881C18.9385 13.376 19.0715 13.4014 19.2212 13.4852C19.5952 13.6945 19.8224 14.1654 19.8376 14.6647L19.8234 16.6204C19.8055 17.0031 19.7128 17.3438 19.4917 17.5639L19.4917 17.5639Z" fill="#A71E5C" stroke="#A71E5C" stroke-width="0.4"/>
</g>
<defs>
<clipPath id="clip0_527_23295">
<rect width="24" height="24" fill="white"/>
</clipPath>
</defs>
</svg>
