<svg width="24" height="24" viewBox="0 0 24 24" fill="none" xmlns="http://www.w3.org/2000/svg">
<path d="M7 12C7 12 10.0154 13 12 13C13.9846 13 17 12 17 12" stroke="#A71E5C" stroke-width="2"/>
<circle cx="15.5" cy="6.5" r="2.5" fill="white" stroke="#A71E5C" stroke-width="2"/>
<circle cx="10.5" cy="5.5" r="2.5" fill="white" stroke="#A71E5C" stroke-width="2"/>
<path d="M5.24065 8.11043C5.17483 7.51807 5.63852 7 6.23453 7H15.7655C16.3615 7 16.8252 7.51807 16.7594 8.11043L15.2038 22.1104C15.1475 22.6169 14.7195 23 14.2099 23H7.79009C7.28054 23 6.85247 22.6169 6.7962 22.1104L5.24065 8.11043Z" fill="white" stroke="#A71E5C" stroke-width="2"/>
<path d="M5 10C5 10 8.3169 11 10.5 11C12.6831 11 16 10 16 10" stroke="#A71E5C" stroke-width="2"/>
<path d="M13 4.99994C13 4.99994 13.2164 3.06562 14.5 1.99994C15.9422 0.802566 20 1.99994 20 1.99994" stroke="#A71E5C" stroke-width="2" stroke-linecap="round"/>
</svg>
