<svg width="24" height="24" viewBox="0 0 24 24" fill="none" xmlns="http://www.w3.org/2000/svg">
<path fill-rule="evenodd" clip-rule="evenodd" d="M15 5H10C7.79086 5 6 6.79086 6 9V15C6 17.2091 7.79086 19 10 19H15C17.2091 19 19 17.2091 19 15V9C19 6.79086 17.2091 5 15 5Z" stroke="#1D1117" stroke-width="2" stroke-linecap="round" stroke-linejoin="round"/>
<path d="M15.5 10C16.0523 10 16.5 9.55228 16.5 9C16.5 8.44772 16.0523 8 15.5 8V10ZM9.5 8C8.94772 8 8.5 8.44772 8.5 9C8.5 9.55228 8.94772 10 9.5 10V8ZM15.5 13C16.0523 13 16.5 12.5523 16.5 12C16.5 11.4477 16.0523 11 15.5 11V13ZM9.5 11C8.94772 11 8.5 11.4477 8.5 12C8.5 12.5523 8.94772 13 9.5 13V11ZM12.5 16C13.0523 16 13.5 15.5523 13.5 15C13.5 14.4477 13.0523 14 12.5 14V16ZM9.5 14C8.94772 14 8.5 14.4477 8.5 15C8.5 15.5523 8.94772 16 9.5 16V14ZM15.5 8H9.5V10H15.5V8ZM15.5 11H9.5V13H15.5V11ZM12.5 14H9.5V16H12.5V14Z" fill="#1D1117"/>
</svg>
