<svg width="210" height="32" viewBox="0 0 210 32" fill="none" xmlns="http://www.w3.org/2000/svg">
<path fill-rule="evenodd" clip-rule="evenodd" d="M12.2304 1.56958C18.9795 1.56958 24.4607 7.03802 24.4607 13.7999C24.4607 20.5491 18.9923 26.0303 12.2304 26.0303C5.48126 26.0303 0 20.5619 0 13.7999C0 7.05083 5.48126 1.56958 12.2304 1.56958ZM9.38729 4.84808C11.6028 4.24617 13.7416 5.02738 14.1642 6.58979C14.5868 8.15221 13.1524 9.91953 10.9369 10.5214C8.72134 11.1234 6.58263 10.3421 6.16001 8.77973C5.73739 7.20451 7.18454 5.45 9.38729 4.84808Z" fill="#A71E5C"/>
<path d="M63.4515 2.3656L55.8112 25.4146H51.2717L45.5814 8.35961L39.7952 25.4146H35.2077L27.5674 2.3656H32.0109L37.7332 19.8841L43.6953 2.3656H47.6433L53.4775 19.98L59.3596 2.3656H63.4515Z" fill="#1D1117"/>
<path d="M66.9046 4.21978C66.3931 3.75625 66.1533 3.16483 66.1533 2.46153C66.1533 1.75823 66.4091 1.16684 66.9046 0.703301C67.4161 0.239764 68.0394 0 68.7747 0C69.526 0 70.1493 0.223773 70.6448 0.671326C71.1563 1.11888 71.3961 1.6943 71.3961 2.36563C71.3961 3.08491 71.1403 3.6923 70.6608 4.18781C70.1653 4.68331 69.5419 4.92308 68.7747 4.92308C68.0394 4.92308 67.4001 4.68332 66.9046 4.21978ZM66.6968 7.81619H70.8047V25.3986H66.6968V7.81619Z" fill="#1D1117"/>
<path d="M91.5194 9.57444C92.862 10.8691 93.5334 12.7872 93.5334 15.3287V25.3986H89.4255V15.8562C89.4255 14.3217 89.0578 13.1549 88.3385 12.3876C87.6193 11.6204 86.5803 11.2208 85.2376 11.2208C83.7192 11.2208 82.5204 11.6843 81.6412 12.5794C80.7621 13.4905 80.3305 14.8012 80.3305 16.5115V25.3986H76.2227V7.81621H80.1387V10.0859C80.8261 9.27076 81.6732 8.66335 82.7122 8.24777C83.7511 7.83218 84.902 7.62439 86.1967 7.62439C88.4025 7.62439 90.1767 8.27974 91.5194 9.57444Z" fill="#1D1117"/>
<path d="M115.383 17.934H101.589C101.829 19.2287 102.468 20.2517 103.475 21.0189C104.498 21.7701 105.761 22.1538 107.279 22.1538C109.213 22.1538 110.796 21.5144 112.059 20.2517L114.264 22.7931C113.465 23.7362 112.474 24.4555 111.275 24.935C110.061 25.4145 108.702 25.6543 107.199 25.6543C105.265 25.6543 103.571 25.2707 102.1 24.5034C100.63 23.7362 99.4951 22.6652 98.6959 21.2906C97.8967 19.916 97.4971 18.3655 97.4971 16.6393C97.4971 14.929 97.8807 13.3785 98.6639 12.0199C99.4471 10.6453 100.518 9.57433 101.909 8.8071C103.299 8.03987 104.85 7.65625 106.576 7.65625C108.286 7.65625 109.821 8.03988 111.163 8.79113C112.506 9.54238 113.561 10.6133 114.328 11.9879C115.079 13.3626 115.463 14.945 115.463 16.7512C115.447 16.9909 115.431 17.4065 115.383 17.934ZM103.219 12.0838C102.308 12.867 101.749 13.906 101.557 15.2007H111.531C111.355 13.922 110.812 12.899 109.917 12.0998C109.022 11.3166 107.903 10.917 106.56 10.917C105.249 10.917 104.13 11.3006 103.219 12.0838Z" fill="#1D1117"/>
<path d="M139.152 15.5045C139.903 16.4795 140.27 17.6943 140.27 19.1488C140.27 21.1468 139.503 22.6813 137.969 23.7682C136.434 24.8551 134.197 25.3986 131.255 25.3986H119.795V2.3656H130.584C133.301 2.3656 135.395 2.89307 136.866 3.964C138.336 5.03493 139.072 6.48948 139.072 8.35961C139.072 9.49448 138.8 10.5175 138.288 11.3806C137.777 12.2437 137.042 12.931 136.115 13.4265C137.393 13.8421 138.4 14.5294 139.152 15.5045ZM124.079 5.72226V12.0679H130.137C131.623 12.0679 132.774 11.7962 133.573 11.2687C134.372 10.7253 134.772 9.94204 134.772 8.91906C134.772 7.86412 134.372 7.06491 133.573 6.53743C132.774 5.99398 131.623 5.73823 130.137 5.73823H124.079V5.72226ZM135.955 18.7173C135.955 16.4955 134.292 15.3926 130.984 15.3926H124.063V22.0419H130.984C134.292 22.0419 135.955 20.939 135.955 18.7173Z" fill="#1D1117"/>
<path d="M160.906 17.934H147.111C147.351 19.2287 147.991 20.2517 148.998 21.0189C150.021 21.7701 151.283 22.1538 152.802 22.1538C154.736 22.1538 156.318 21.5144 157.581 20.2517L159.787 22.7931C158.988 23.7362 157.997 24.4555 156.798 24.935C155.583 25.4145 154.224 25.6543 152.722 25.6543C150.788 25.6543 149.093 25.2707 147.623 24.5034C146.152 23.7362 145.018 22.6652 144.218 21.2906C143.419 19.916 143.02 18.3655 143.02 16.6393C143.02 14.929 143.403 13.3785 144.186 12.0199C144.97 10.6453 146.041 9.57433 147.431 8.8071C148.822 8.03987 150.372 7.65625 152.098 7.65625C153.809 7.65625 155.343 8.03988 156.686 8.79113C158.029 9.54238 159.083 10.6133 159.851 11.9879C160.602 13.3626 160.986 14.945 160.986 16.7512C160.97 16.9909 160.954 17.4065 160.906 17.934ZM148.742 12.0838C147.831 12.867 147.271 13.906 147.079 15.2007H157.054C156.878 13.922 156.334 12.899 155.439 12.0998C154.544 11.3166 153.425 10.917 152.082 10.917C150.772 10.917 149.653 11.3006 148.742 12.0838Z" fill="#1D1117"/>
<path d="M175.084 7.62439V11.5405C174.732 11.4766 174.412 11.4446 174.125 11.4446C172.526 11.4446 171.28 11.9081 170.369 12.8512C169.473 13.7782 169.026 15.1209 169.026 16.8792V25.3986H164.918V7.81621H168.834V10.3896C170.017 8.55148 172.111 7.62439 175.084 7.62439Z" fill="#1D1117"/>
<path d="M188.75 7.62439V11.5405C188.398 11.4766 188.078 11.4446 187.791 11.4446C186.192 11.4446 184.946 11.9081 184.035 12.8512C183.139 13.7782 182.692 15.1209 182.692 16.8792V25.3986H178.584V7.81621H182.5V10.3896C183.683 8.55148 185.761 7.62439 188.75 7.62439Z" fill="#1D1117"/>
<path d="M209.354 7.81616L201.122 26.8052C200.355 28.7073 199.428 30.0659 198.325 30.8332C197.222 31.6004 195.896 32 194.345 32C193.466 32 192.603 31.8561 191.74 31.5684C190.877 31.2807 190.189 30.8811 189.63 30.3856L191.276 27.3646C191.676 27.7323 192.139 28.0359 192.683 28.2597C193.226 28.4835 193.77 28.5954 194.313 28.5954C195.032 28.5954 195.64 28.4036 196.103 28.0359C196.567 27.6683 197.015 27.0449 197.398 26.1658L197.702 25.4785L190.029 7.83214H194.313L199.844 20.8272L205.406 7.83214H209.354V7.81616Z" fill="#1D1117"/>
</svg>
