<svg width="32" height="32" viewBox="0 0 32 32" fill="none" xmlns="http://www.w3.org/2000/svg">
<path d="M25.6676 12.0386C25.6873 12.5905 26.1506 13.022 26.7026 13.0024C27.2545 12.9827 27.686 12.5193 27.6664 11.9674L25.6676 12.0386ZM20.9523 6.66965V7.66965C20.9635 7.66965 20.9746 7.66947 20.9857 7.66909L20.9523 6.66965ZM12.3817 6.66965L12.3483 7.66909C12.3594 7.66947 12.3705 7.66965 12.3817 7.66965V6.66965ZM5.66763 11.9674C5.64797 12.5193 6.07947 12.9827 6.63141 13.0024C7.18334 13.022 7.6467 12.5905 7.66636 12.0386L5.66763 11.9674ZM27.667 12.003C27.667 11.4507 27.2193 11.003 26.667 11.003C26.1147 11.003 25.667 11.4507 25.667 12.003H27.667ZM26.667 20.003L27.6664 20.0386C27.6668 20.0267 27.667 20.0148 27.667 20.003H26.667ZM20.9523 25.3363L20.9857 24.3369C20.9746 24.3365 20.9635 24.3363 20.9523 24.3363L20.9523 25.3363ZM12.3817 25.3363V24.3363C12.3705 24.3363 12.3594 24.3365 12.3483 24.3369L12.3817 25.3363ZM6.66699 20.003H5.66699C5.66699 20.0148 5.6672 20.0267 5.66763 20.0386L6.66699 20.003ZM7.66699 12.003C7.66699 11.4507 7.21928 11.003 6.66699 11.003C6.11471 11.003 5.66699 11.4507 5.66699 12.003H7.66699ZM27.1714 12.8665C27.6483 12.5879 27.809 11.9755 27.5305 11.4986C27.2519 11.0217 26.6395 10.8609 26.1626 11.1395L27.1714 12.8665ZM19.6483 16.103L19.1439 15.2395L19.1356 15.2444L19.6483 16.103ZM13.6857 16.103L14.1984 15.2444L14.1901 15.2395L13.6857 16.103ZM7.17139 11.1395C6.69451 10.8609 6.0821 11.0217 5.80352 11.4986C5.52495 11.9755 5.68571 12.5879 6.16259 12.8665L7.17139 11.1395ZM27.6664 11.9674C27.5382 8.36699 24.5196 5.54986 20.9189 5.67021L20.9857 7.66909C23.4842 7.58559 25.5787 9.54033 25.6676 12.0386L27.6664 11.9674ZM20.9523 5.66965H12.3817V7.66965H20.9523V5.66965ZM12.4151 5.67021C8.81438 5.54986 5.79583 8.36699 5.66763 11.9674L7.66636 12.0386C7.75532 9.54033 9.84982 7.58559 12.3483 7.66909L12.4151 5.67021ZM25.667 12.003V20.003H27.667V12.003H25.667ZM25.6676 19.9674C25.5787 22.4656 23.4842 24.4204 20.9857 24.3369L20.9189 26.3358C24.5196 26.4561 27.5382 23.639 27.6664 20.0386L25.6676 19.9674ZM20.9523 24.3363H12.3817V26.3363H20.9523V24.3363ZM12.3483 24.3369C9.84982 24.4204 7.75532 22.4656 7.66636 19.9674L5.66763 20.0386C5.79583 23.639 8.81438 26.4561 12.4151 26.3358L12.3483 24.3369ZM7.66699 20.003V12.003H5.66699V20.003H7.66699ZM26.1626 11.1395L19.1439 15.2395L20.1527 16.9665L27.1714 12.8665L26.1626 11.1395ZM19.1356 15.2444C17.6151 16.1525 15.7189 16.1525 14.1984 15.2444L13.1729 16.9615C15.325 18.2468 18.009 18.2468 20.1611 16.9615L19.1356 15.2444ZM14.1901 15.2395L7.17139 11.1395L6.16259 12.8665L13.1813 16.9665L14.1901 15.2395Z" fill="#9A7D8C"/>
</svg>
