<svg width="106" height="106" viewBox="0 0 106 106" fill="none" xmlns="http://www.w3.org/2000/svg">
<path d="M1 32C1 14.8792 14.8792 1 32 1H74C91.1208 1 105 14.8792 105 32V74C105 91.1208 91.1208 105 74 105H1V32Z" stroke="#A71E5C" stroke-width="2"/>
<path d="M21.0348 55H23.5508V30.52H21.0348L16.4108 33.274V36.096L21.0348 33.308V55ZM35.6088 55.51C40.1308 55.51 43.5988 52.042 43.5988 47.52V38C43.5988 33.478 40.1308 30.01 35.6088 30.01C31.0868 30.01 27.6188 33.478 27.6188 38V47.52C27.6188 52.042 31.0868 55.51 35.6088 55.51ZM35.6088 53.096C32.5828 53.096 30.1348 50.648 30.1348 47.622V37.864C30.1348 34.872 32.5828 32.424 35.6088 32.424C38.6348 32.424 41.0828 34.872 41.0828 37.864V47.622C41.0828 50.648 38.6348 53.096 35.6088 53.096ZM53.9808 55.51C58.5028 55.51 61.9708 52.042 61.9708 47.52V38C61.9708 33.478 58.5028 30.01 53.9808 30.01C49.4588 30.01 45.9908 33.478 45.9908 38V47.52C45.9908 52.042 49.4588 55.51 53.9808 55.51ZM53.9808 53.096C50.9548 53.096 48.5068 50.648 48.5068 47.622V37.864C48.5068 34.872 50.9548 32.424 53.9808 32.424C57.0068 32.424 59.4548 34.872 59.4548 37.864V47.622C59.4548 50.648 57.0068 53.096 53.9808 53.096ZM70.1427 42.25C73.5087 42.25 76.2627 39.53 76.2627 36.13C76.2627 32.73 73.5087 30.01 70.1427 30.01C66.8787 30.01 64.0227 32.798 64.0227 36.13C64.0227 39.53 66.7767 42.25 70.1427 42.25ZM66.7427 55L89.5567 32.22L87.8567 30.52L65.0427 53.3L66.7427 55ZM70.1427 40.006C68.0347 40.006 66.2667 38.238 66.2667 36.13C66.2667 34.022 68.0347 32.254 70.1427 32.254C72.2507 32.254 74.0187 34.022 74.0187 36.13C74.0187 38.238 72.2507 40.006 70.1427 40.006ZM84.4567 55.51C87.8227 55.51 90.5767 52.79 90.5767 49.39C90.5767 45.99 87.8227 43.27 84.4567 43.27C81.1927 43.27 78.3367 46.058 78.3367 49.39C78.3367 52.79 81.0907 55.51 84.4567 55.51ZM84.4567 53.266C82.3827 53.266 80.6147 51.498 80.6147 49.39C80.6147 47.282 82.3827 45.514 84.4567 45.514C86.5647 45.514 88.3327 47.282 88.3327 49.39C88.3327 51.498 86.5647 53.266 84.4567 53.266Z" fill="#A71E5C"/>
<path d="M25.8357 78H34.0247V76.119H27.8307V64.32H25.8357V78ZM35.2666 78H44.0066V76.119H37.2616V71.901H42.8666V70.02H37.2616V66.201H44.0066V64.32H35.2666V78ZM51.4941 78.285C55.4841 78.285 57.7451 75.511 57.7451 71.692C57.7451 71.597 57.7261 71.122 57.7071 70.894H52.9381V72.49H55.5981C55.3131 75.036 53.9641 76.423 51.6081 76.404C48.7011 76.366 47.2381 74.295 47.2571 71.16C47.2761 68.025 48.7011 65.897 51.6081 65.935C53.4891 65.935 54.7431 66.999 55.2941 68.633L57.3271 68.272C56.6241 65.631 54.7051 64.035 51.4941 64.035C47.7511 64.035 45.1481 66.733 45.1481 71.16C45.1481 75.644 47.8271 78.285 51.4941 78.285ZM67.6275 78H69.6795L65.2335 64.32H62.3835L57.9375 78H59.9895L60.9965 74.922H66.6205L67.6275 78ZM61.6045 73.06L63.7895 66.315L66.0125 73.06H61.6045ZM71.2034 78H79.3924V76.119H73.1984V64.32H71.2034V78Z" fill="#A71E5C"/>
</svg>
