<svg width="32" height="32" viewBox="0 0 32 32" fill="none" xmlns="http://www.w3.org/2000/svg">
<path fill-rule="evenodd" clip-rule="evenodd" d="M12.1133 23.9758L9.75728 25.1758C9.6657 25.2214 9.557 25.216 9.47041 25.1615C9.38383 25.1071 9.33186 25.0114 9.33328 24.9092V7.93984C9.31914 7.25104 9.86582 6.68108 10.5546 6.6665H22.7773C23.4661 6.68108 24.0127 7.25104 23.9986 7.93984V24.9092C24 25.0114 23.9481 25.1071 23.8615 25.1615C23.7749 25.216 23.6662 25.2214 23.5746 25.1758L21.2186 23.9758C21.1248 23.9279 21.0123 23.9351 20.9253 23.9945L19.0293 25.2825C18.9311 25.3492 18.8021 25.3492 18.7039 25.2825L16.8293 24.0092C16.7311 23.9424 16.6021 23.9424 16.5039 24.0092L14.6293 25.2825C14.5311 25.3492 14.4021 25.3492 14.3039 25.2825L12.4066 23.9998C12.3206 23.9387 12.2081 23.9295 12.1133 23.9758Z" stroke="#A71E5C" stroke-width="2" stroke-linecap="round" stroke-linejoin="round"/>
<path d="M13.332 17.6662C12.7797 17.6662 12.332 18.1139 12.332 18.6662C12.332 19.2185 12.7797 19.6662 13.332 19.6662V17.6662ZM19.884 19.6662C20.4363 19.6662 20.884 19.2185 20.884 18.6662C20.884 18.1139 20.4363 17.6662 19.884 17.6662V19.6662ZM14.7058 13.2926C14.3153 12.902 13.6821 12.902 13.2916 13.2926C12.9011 13.6831 12.9011 14.3163 13.2916 14.7068L14.7058 13.2926ZM15.332 15.333L14.6249 16.0401C15.0154 16.4306 15.6486 16.4306 16.0391 16.0401L15.332 15.333ZM20.0391 12.0401C20.4297 11.6496 20.4297 11.0164 20.0391 10.6259C19.6486 10.2354 19.0155 10.2354 18.6249 10.6259L20.0391 12.0401ZM13.332 19.6662H19.884V17.6662H13.332V19.6662ZM13.2916 14.7068L14.6249 16.0401L16.0391 14.6259L14.7058 13.2926L13.2916 14.7068ZM16.0391 16.0401L20.0391 12.0401L18.6249 10.6259L14.6249 14.6259L16.0391 16.0401Z" fill="#A71E5C"/>
</svg>
