<svg width="25" height="24" viewBox="0 0 25 24" fill="none" xmlns="http://www.w3.org/2000/svg">
<path d="M13.4893 8.11516C13.8347 7.6842 13.7653 7.05485 13.3344 6.70945C12.9034 6.36406 12.2741 6.43342 11.9287 6.86437L13.4893 8.11516ZM6.811 14.8488L7.56837 15.5017C7.57618 15.4927 7.58383 15.4835 7.59131 15.4742L6.811 14.8488ZM6.64 15.2668L5.64212 15.2017C5.64171 15.208 5.64136 15.2142 5.64107 15.2205L6.64 15.2668ZM6.5 18.2898L5.50107 18.2435C5.49877 18.2932 5.50018 18.3429 5.50528 18.3924L6.5 18.2898ZM7.287 18.9768L7.31969 19.9762C7.38638 19.974 7.45269 19.9652 7.51761 19.9498L7.287 18.9768ZM10.287 18.2658L10.5176 19.2388C10.5228 19.2376 10.528 19.2363 10.5332 19.235L10.287 18.2658ZM10.672 18.0218L11.4435 18.6582L11.4521 18.6474L10.672 18.0218ZM17.4921 11.1154C17.8377 10.6845 17.7685 10.0551 17.3376 9.70962C16.9067 9.36411 16.2774 9.4333 15.9319 9.86416L17.4921 11.1154ZM11.9319 6.86411C11.5864 7.29495 11.6555 7.92432 12.0863 8.26986C12.5172 8.6154 13.1466 8.54626 13.4921 8.11542L11.9319 6.86411ZM14.3 5.50976L15.0801 6.13542C15.0932 6.11903 15.1059 6.10223 15.118 6.08505L14.3 5.50976ZM15.929 5.18976L16.5687 4.42118C16.5369 4.39467 16.5034 4.37017 16.4685 4.34781L15.929 5.18976ZM18.166 7.05176L18.8738 6.34531C18.8521 6.32357 18.8294 6.30283 18.8057 6.28318L18.166 7.05176ZM18.5029 7.87264L19.5029 7.87813V7.87813L18.5029 7.87264ZM18.157 8.68976L17.457 7.97558C17.4287 8.00336 17.402 8.0328 17.3772 8.06375L18.157 8.68976ZM15.9322 9.86375C15.5865 10.2944 15.6553 10.9238 16.086 11.2696C16.5167 11.6153 17.1461 11.5465 17.4918 11.1158L15.9322 9.86375ZM13.701 7.34157C13.6191 6.79538 13.11 6.41896 12.5638 6.50081C12.0176 6.58265 11.6412 7.09178 11.723 7.63796L13.701 7.34157ZM16.8466 11.4807C17.3939 11.4063 17.7773 10.9024 17.7029 10.3551C17.6285 9.80787 17.1246 9.42451 16.5774 9.49887L16.8466 11.4807ZM11.9287 6.86437L6.03069 14.2234L7.59131 15.4742L13.4893 8.11516L11.9287 6.86437ZM6.05363 14.1958C5.81078 14.4775 5.66632 14.8306 5.64212 15.2017L7.63788 15.3318C7.63379 15.3945 7.60939 15.4542 7.56837 15.5017L6.05363 14.1958ZM5.64107 15.2205L5.50107 18.2435L7.49893 18.336L7.63893 15.313L5.64107 15.2205ZM5.50528 18.3924C5.60042 19.3148 6.39284 20.0065 7.31969 19.9762L7.25431 17.9773C7.37712 17.9733 7.48212 18.0649 7.49472 18.1872L5.50528 18.3924ZM7.51761 19.9498L10.5176 19.2388L10.0564 17.2927L7.05639 18.0037L7.51761 19.9498ZM10.5332 19.235C10.8902 19.1443 11.209 18.9423 11.4434 18.6581L9.9006 17.3854C9.93671 17.3416 9.98584 17.3105 10.0408 17.2965L10.5332 19.235ZM11.4521 18.6474L17.4921 11.1154L15.9319 9.86416L9.89186 17.3962L11.4521 18.6474ZM13.4921 8.11542L15.0801 6.13542L13.5199 4.88411L11.9319 6.86411L13.4921 8.11542ZM15.118 6.08505C15.1796 5.99744 15.2993 5.97393 15.3895 6.03172L16.4685 4.34781C15.4766 3.71211 14.1599 3.97077 13.482 4.93448L15.118 6.08505ZM15.2893 5.95835L17.5263 7.82035L18.8057 6.28318L16.5687 4.42118L15.2893 5.95835ZM17.4582 7.75822C17.4871 7.78711 17.5032 7.82632 17.503 7.86715L19.5029 7.87813C19.5061 7.30372 19.2796 6.75186 18.8738 6.34531L17.4582 7.75822ZM17.503 7.86715C17.5027 7.90797 17.4862 7.947 17.457 7.97558L18.857 9.40395C19.2672 9.00188 19.4998 8.45255 19.5029 7.87813L17.503 7.86715ZM17.3772 8.06375L15.9322 9.86375L17.4918 11.1158L18.9368 9.31578L17.3772 8.06375ZM11.723 7.63796C12.0927 10.1045 14.3753 11.8165 16.8466 11.4807L16.5774 9.49887C15.1899 9.68739 13.9085 8.72628 13.701 7.34157L11.723 7.63796Z" fill="#1D1117"/>
</svg>
