<svg width="24" height="24" viewBox="0 0 24 24" fill="none" xmlns="http://www.w3.org/2000/svg">
<path d="M17.3286 10.2738C17.4806 10.8048 18.0342 11.112 18.5652 10.96C19.0961 10.808 19.4033 10.2544 19.2513 9.7234L17.3286 10.2738ZM16.59 7.0486L17.3101 6.35478L17.3093 6.35399L16.59 7.0486ZM13.111 5.1336L13.313 4.15423L13.3111 4.15385L13.111 5.1336ZM9.18996 5.5336L8.79605 4.61445L8.79507 4.61487L9.18996 5.5336ZM6.14396 8.1096L5.30355 7.56765L5.30354 7.56767L6.14396 8.1096ZM6.98796 16.9486L7.71107 16.2579L7.71063 16.2574L6.98796 16.9486ZM15.557 17.8196L16.1263 18.6417L16.1265 18.6415L15.557 17.8196ZM18.9858 15.048C19.1904 14.535 18.9403 13.9533 18.4273 13.7487C17.9143 13.5442 17.3326 13.7942 17.1281 14.3072L18.9858 15.048ZM17.3221 9.74708C17.1832 10.2816 17.5039 10.8275 18.0384 10.9665C18.573 11.1054 19.1189 10.7847 19.2578 10.2501L17.3221 9.74708ZM19.9678 7.51813C20.1067 6.9836 19.786 6.43767 19.2515 6.29875C18.717 6.15984 18.171 6.48055 18.0321 7.01508L19.9678 7.51813ZM18.0236 10.9625C18.5559 11.1096 19.1067 10.7973 19.2538 10.265C19.4009 9.73262 19.0886 9.18183 18.5563 9.03473L18.0236 10.9625ZM15.9073 8.30273C15.375 8.15563 14.8242 8.46792 14.6771 9.00025C14.53 9.53259 14.8423 10.0834 15.3746 10.2305L15.9073 8.30273ZM19.2513 9.7234C18.8893 8.45874 18.2228 7.30211 17.3101 6.35478L15.8698 7.74242C16.5557 8.4543 17.0565 9.32346 17.3286 10.2738L19.2513 9.7234ZM17.3093 6.35399C16.229 5.23517 14.8362 4.46848 13.313 4.15423L12.9089 6.11298C14.0377 6.34587 15.07 6.91406 15.8706 7.74322L17.3093 6.35399ZM13.3111 4.15385C11.7943 3.84392 10.219 4.00463 8.79605 4.61445L9.58386 6.45275C10.6324 6.00341 11.7931 5.885 12.9108 6.11336L13.3111 4.15385ZM8.79507 4.61487C7.36358 5.23016 6.14798 6.25819 5.30355 7.56765L6.98436 8.65156C7.6133 7.67627 8.51867 6.9106 9.58485 6.45233L8.79507 4.61487ZM5.30354 7.56767C3.25576 10.7433 3.65353 14.909 6.26528 17.6398L7.71063 16.2574C5.73839 14.1953 5.43802 11.0496 6.98438 8.65154L5.30354 7.56767ZM6.26484 17.6393C8.85782 20.3539 13.0402 20.779 16.1263 18.6417L14.9876 16.9975C12.7104 18.5746 9.62437 18.2609 7.71107 16.2579L6.26484 17.6393ZM16.1265 18.6415C17.4121 17.7507 18.4066 16.5008 18.9858 15.048L17.1281 14.3072C16.6944 15.3949 15.9498 16.3307 14.9874 16.9977L16.1265 18.6415ZM19.2578 10.2501L19.9678 7.51813L18.0321 7.01508L17.3221 9.74708L19.2578 10.2501ZM18.5563 9.03473L15.9073 8.30273L15.3746 10.2305L18.0236 10.9625L18.5563 9.03473Z" fill="#1D1117"/>
</svg>
