<svg width="124" height="134" viewBox="0 0 124 134" fill="none" xmlns="http://www.w3.org/2000/svg">
<circle cx="57.7144" cy="58.6697" r="55.7144" fill="url(#paint0_linear_460_15177)"/>
<path d="M92.5315 101.856L122 131.213M2.00004 58.3567C2.03116 31.7787 20.8313 8.92324 46.9043 3.7664C72.9773 -1.39043 99.0624 12.5874 109.209 37.1524C119.355 61.7175 110.737 90.0291 88.6252 104.775C66.5128 119.521 37.0637 116.594 18.2858 97.7853C7.84126 87.3235 1.98273 73.1397 2.00004 58.3567Z" stroke="url(#paint1_linear_460_15177)" stroke-width="4" stroke-linecap="round" stroke-linejoin="round"/>
<path d="M50.5572 48.6841C49.7761 47.903 48.5098 47.903 47.7287 48.6841C46.9477 49.4651 46.9477 50.7314 47.7287 51.5125L50.5572 48.6841ZM56.6573 60.441C57.4383 61.2221 58.7047 61.2221 59.4857 60.441C60.2668 59.66 60.2668 58.3937 59.4857 57.6126L56.6573 60.441ZM59.4857 57.6125C58.7047 56.8315 57.4384 56.8315 56.6573 57.6125C55.8763 58.3936 55.8763 59.6599 56.6573 60.441L59.4857 57.6125ZM65.5859 69.3695C66.3669 70.1506 67.6333 70.1506 68.4143 69.3695C69.1954 68.5885 69.1954 67.3222 68.4143 66.5411L65.5859 69.3695ZM59.4857 60.441C60.2668 59.6599 60.2668 58.3936 59.4857 57.6125C58.7047 56.8315 57.4383 56.8315 56.6573 57.6125L59.4857 60.441ZM47.7287 66.5411C46.9477 67.3222 46.9477 68.5885 47.7287 69.3695C48.5098 70.1506 49.7761 70.1506 50.5572 69.3695L47.7287 66.5411ZM56.6573 57.6126C55.8763 58.3937 55.8763 59.66 56.6573 60.441C57.4384 61.2221 58.7047 61.2221 59.4857 60.441L56.6573 57.6126ZM68.4143 51.5125C69.1954 50.7314 69.1954 49.4651 68.4143 48.6841C67.6333 47.903 66.3669 47.903 65.5859 48.6841L68.4143 51.5125ZM47.7287 51.5125L56.6573 60.441L59.4857 57.6126L50.5572 48.6841L47.7287 51.5125ZM56.6573 60.441L65.5859 69.3695L68.4143 66.5411L59.4857 57.6125L56.6573 60.441ZM56.6573 57.6125L47.7287 66.5411L50.5572 69.3695L59.4857 60.441L56.6573 57.6125ZM59.4857 60.441L68.4143 51.5125L65.5859 48.6841L56.6573 57.6126L59.4857 60.441Z" fill="#811B49"/>
<defs>
<linearGradient id="paint0_linear_460_15177" x1="6.84473" y1="10.2224" x2="105.485" y2="97.1402" gradientUnits="userSpaceOnUse">
<stop stop-color="#FFEDF5"/>
<stop offset="1" stop-color="#E0BCCD"/>
</linearGradient>
<linearGradient id="paint1_linear_460_15177" x1="60.5715" y1="45.0983" x2="144.145" y2="80.137" gradientUnits="userSpaceOnUse">
<stop stop-color="#A71E5C"/>
<stop offset="1" stop-color="#1D1117"/>
</linearGradient>
</defs>
</svg>
