<svg width="24" height="24" viewBox="0 0 24 24" fill="none" xmlns="http://www.w3.org/2000/svg">
<path fill-rule="evenodd" clip-rule="evenodd" d="M10.4368 9.38739C9.30193 11.1424 9.5234 13.4475 10.9717 14.9542C12.3966 16.44 14.689 16.6724 16.3831 15.5028C16.7392 15.2577 17.0566 14.9607 17.3248 14.6217C17.5885 14.2883 17.8028 13.9189 17.9614 13.5245C18.2866 12.7147 18.3708 11.828 18.2037 10.9714C18.0391 10.1227 17.6309 9.34032 17.0288 8.71996C16.4358 8.10684 15.672 7.68632 14.8368 7.51311C14.0049 7.34313 13.141 7.43084 12.3602 7.76454C11.5721 8.10232 10.9024 8.66731 10.4368 9.38739Z" stroke="#DECA63" stroke-width="2" stroke-linecap="round" stroke-linejoin="round"/>
<path d="M17.9111 13.8122C17.4647 13.4869 16.8392 13.5852 16.514 14.0316C16.1888 14.4779 16.287 15.1034 16.7334 15.4286L17.9111 13.8122ZM19.4111 17.3795C19.8575 17.7047 20.483 17.6065 20.8082 17.1601C21.1334 16.7137 21.0352 16.0882 20.5888 15.763L19.4111 17.3795ZM6.28571 12.9999C6.838 12.9999 7.28571 12.5522 7.28571 11.9999C7.28571 11.4476 6.838 10.9999 6.28571 10.9999V12.9999ZM4 10.9999C3.44772 10.9999 3 11.4476 3 11.9999C3 12.5522 3.44772 12.9999 4 12.9999V10.9999ZM6.28571 16.4284C6.838 16.4284 7.28571 15.9807 7.28571 15.4284C7.28571 14.8762 6.838 14.4284 6.28571 14.4284V16.4284ZM4 14.4284C3.44772 14.4284 3 14.8762 3 15.4284C3 15.9807 3.44772 16.4284 4 16.4284V14.4284ZM7.42857 9.5713C7.98086 9.5713 8.42857 9.12358 8.42857 8.5713C8.42857 8.01901 7.98086 7.5713 7.42857 7.5713V9.5713ZM4 7.5713C3.44772 7.5713 3 8.01901 3 8.5713C3 9.12358 3.44772 9.5713 4 9.5713V7.5713ZM16.7334 15.4286L19.4111 17.3795L20.5888 15.763L17.9111 13.8122L16.7334 15.4286ZM6.28571 10.9999H4V12.9999H6.28571V10.9999ZM6.28571 14.4284H4V16.4284H6.28571V14.4284ZM7.42857 7.5713H4V9.5713H7.42857V7.5713Z" fill="#DECA63"/>
</svg>
