<svg width="16" height="16" viewBox="0 0 16 16" fill="none" xmlns="http://www.w3.org/2000/svg">
<circle cx="8" cy="8" r="8" fill="#9A7D8C"/>
<path d="M8.09075 2.783C6.30975 2.783 5.28275 3.407 4.87975 4.85L6.51775 5.253C6.66075 4.59 7.11575 4.317 8.03875 4.317C8.77975 4.317 9.31275 4.603 9.31275 5.227C9.31275 5.578 9.07875 5.955 8.92275 6.124C8.83175 6.215 8.68875 6.345 8.49375 6.514C8.28575 6.696 8.15575 6.813 8.09075 6.878C7.66175 7.268 7.38875 7.645 7.24575 8.022C7.10275 8.399 7.03775 8.893 7.02475 9.478H8.67575C8.67575 8.763 8.76675 8.425 9.28675 7.944C9.35175 7.892 9.50775 7.749 9.75475 7.528C10.0017 7.307 10.1837 7.151 10.2877 7.034C10.3787 6.93 10.5087 6.774 10.6777 6.566C11.0027 6.15 11.1197 5.734 11.1197 5.253C11.1197 4.434 10.8337 3.81 10.2487 3.394C9.66375 2.991 8.94875 2.783 8.09075 2.783ZM8.79275 12V10.245H6.90775V12H8.79275Z" fill="white"/>
</svg>
