<svg width="24" height="24" viewBox="0 0 24 24" fill="none" xmlns="http://www.w3.org/2000/svg">
<path d="M11.0401 12.1259C10.6496 11.7354 10.0164 11.7354 9.62589 12.1259C9.23537 12.5164 9.23537 13.1496 9.62589 13.5401L11.0401 12.1259ZM11.2929 15.2071C11.6834 15.5976 12.3166 15.5976 12.7071 15.2071C13.0976 14.8166 13.0976 14.1834 12.7071 13.7929L11.2929 15.2071ZM9.62589 15.4599C9.23537 15.8504 9.23537 16.4836 9.62589 16.8741C10.0164 17.2646 10.6496 17.2646 11.0401 16.8741L9.62589 15.4599ZM12.7071 15.2071C13.0976 14.8166 13.0976 14.1834 12.7071 13.7929C12.3166 13.4024 11.6834 13.4024 11.2929 13.7929L12.7071 15.2071ZM14.3741 13.5401C14.7646 13.1496 14.7646 12.5164 14.3741 12.1259C13.9836 11.7354 13.3504 11.7354 12.9599 12.1259L14.3741 13.5401ZM11.2929 13.7929C10.9024 14.1834 10.9024 14.8166 11.2929 15.2071C11.6834 15.5976 12.3166 15.5976 12.7071 15.2071L11.2929 13.7929ZM12.9599 16.8741C13.3504 17.2646 13.9836 17.2646 14.3741 16.8741C14.7646 16.4836 14.7646 15.8504 14.3741 15.4599L12.9599 16.8741ZM12.7071 13.7929C12.3166 13.4024 11.6834 13.4024 11.2929 13.7929C10.9024 14.1834 10.9024 14.8166 11.2929 15.2071L12.7071 13.7929ZM13.762 6.5C14.3143 6.5 14.762 6.05228 14.762 5.5C14.762 4.94772 14.3143 4.5 13.762 4.5V6.5ZM10.429 4.5C9.87672 4.5 9.429 4.94772 9.429 5.5C9.429 6.05228 9.87672 6.5 10.429 6.5V4.5ZM17 8.5C17.5523 8.5 18 8.05228 18 7.5C18 6.94772 17.5523 6.5 17 6.5V8.5ZM7 6.5C6.44772 6.5 6 6.94772 6 7.5C6 8.05228 6.44772 8.5 7 8.5V6.5ZM7.73223 18.7678L7.02513 19.4749H7.02513L7.73223 18.7678ZM7 17H8H7ZM9.62589 13.5401L11.2929 15.2071L12.7071 13.7929L11.0401 12.1259L9.62589 13.5401ZM11.0401 16.8741L12.7071 15.2071L11.2929 13.7929L9.62589 15.4599L11.0401 16.8741ZM12.9599 12.1259L11.2929 13.7929L12.7071 15.2071L14.3741 13.5401L12.9599 12.1259ZM14.3741 15.4599L12.7071 13.7929L11.2929 15.2071L12.9599 16.8741L14.3741 15.4599ZM13.762 4.5H10.429V6.5H13.762V4.5ZM17 6.5H7V8.5H17V6.5ZM7.833 10.5H16.167V8.5H7.833V10.5ZM16.167 10.5C16.0748 10.5 16 10.4252 16 10.333H18C18 9.32066 17.1793 8.5 16.167 8.5V10.5ZM16 10.333V17H18V10.333H16ZM16 17C16 17.8284 15.3284 18.5 14.5 18.5V20.5C16.433 20.5 18 18.933 18 17H16ZM14.5 18.5H9.5V20.5H14.5V18.5ZM9.5 18.5C9.10218 18.5 8.72064 18.342 8.43934 18.0607L7.02513 19.4749C7.6815 20.1313 8.57174 20.5 9.5 20.5V18.5ZM8.43934 18.0607C8.15804 17.7794 8 17.3978 8 17H6C6 17.9283 6.36875 18.8185 7.02513 19.4749L8.43934 18.0607ZM8 17V10.333H6V17H8ZM8 10.333C8 10.4252 7.92523 10.5 7.833 10.5V8.5C6.82066 8.5 6 9.32066 6 10.333H8Z" fill="#1D1117"/>
</svg>
