<svg width="32" height="32" viewBox="0 0 32 32" fill="none" xmlns="http://www.w3.org/2000/svg">
<path d="M8.62621 21.9596C8.23568 22.3501 8.23568 22.9833 8.62621 23.3738C9.01673 23.7643 9.6499 23.7643 10.0404 23.3738L8.62621 21.9596ZM16.7071 16.7071C17.0976 16.3166 17.0976 15.6835 16.7071 15.2929C16.3166 14.9024 15.6834 14.9024 15.2929 15.2929L16.7071 16.7071ZM15.2929 15.2929C14.9023 15.6835 14.9023 16.3166 15.2929 16.7071C15.6834 17.0977 16.3166 17.0977 16.7071 16.7071L15.2929 15.2929ZM23.3737 10.0405C23.7643 9.64996 23.7643 9.01679 23.3737 8.62627C22.9832 8.23574 22.3501 8.23574 21.9595 8.62627L23.3737 10.0405ZM16.7071 15.2929C16.3166 14.9024 15.6834 14.9024 15.2929 15.2929C14.9023 15.6835 14.9023 16.3166 15.2929 16.7071L16.7071 15.2929ZM21.9595 23.3738C22.3501 23.7643 22.9832 23.7643 23.3737 23.3738C23.7643 22.9833 23.7643 22.3501 23.3737 21.9596L21.9595 23.3738ZM15.2929 16.7071C15.6834 17.0977 16.3166 17.0977 16.7071 16.7071C17.0976 16.3166 17.0976 15.6835 16.7071 15.2929L15.2929 16.7071ZM10.0404 8.62627C9.6499 8.23574 9.01673 8.23574 8.62621 8.62627C8.23568 9.01679 8.23568 9.64996 8.62621 10.0405L10.0404 8.62627ZM10.0404 23.3738L16.7071 16.7071L15.2929 15.2929L8.62621 21.9596L10.0404 23.3738ZM16.7071 16.7071L23.3737 10.0405L21.9595 8.62627L15.2929 15.2929L16.7071 16.7071ZM15.2929 16.7071L21.9595 23.3738L23.3737 21.9596L16.7071 15.2929L15.2929 16.7071ZM16.7071 15.2929L10.0404 8.62627L8.62621 10.0405L15.2929 16.7071L16.7071 15.2929Z" fill="#1D1117"/>
</svg>
